<?xml version="1.0" encoding="UTF-8" standalone="no"?>
<svg
   xmlns:dc="http://purl.org/dc/elements/1.1/"
   xmlns:cc="http://creativecommons.org/ns#"
   xmlns:rdf="http://www.w3.org/1999/02/22-rdf-syntax-ns#"
   xmlns:svg="http://www.w3.org/2000/svg"
   xmlns="http://www.w3.org/2000/svg"
   xmlns:sodipodi="http://sodipodi.sourceforge.net/DTD/sodipodi-0.dtd"
   xmlns:inkscape="http://www.inkscape.org/namespaces/inkscape"
   version="1.1"
   id="svg851"
   xml:space="preserve"
   width="474.10666"
   height="403.30664"
   viewBox="0 0 474.10666 403.30662"
   sodipodi:docname="ficha_catalografica_20210830174408.svg"
   inkscape:version="1.0.2 (e86c870879, 2021-01-15)"><metadata
     id="metadata857"><rdf:RDF><cc:Work
         rdf:about=""><dc:format>image/svg+xml</dc:format><dc:type
           rdf:resource="http://purl.org/dc/dcmitype/StillImage" /><dc:title /></cc:Work></rdf:RDF></metadata><defs
     id="defs855" /><sodipodi:namedview
     pagecolor="#ffffff"
     bordercolor="#666666"
     borderopacity="1"
     objecttolerance="10"
     gridtolerance="10"
     guidetolerance="10"
     inkscape:pageopacity="0"
     inkscape:pageshadow="2"
     inkscape:window-width="1438"
     inkscape:window-height="854"
     id="namedview853"
     showgrid="false"
     inkscape:zoom="1.1644238"
     inkscape:cx="118.56519"
     inkscape:cy="178.56627"
     inkscape:window-x="0"
     inkscape:window-y="45"
     inkscape:window-maximized="1"
     inkscape:current-layer="g859"
     fit-margin-top="0"
     fit-margin-left="0"
     fit-margin-right="0"
     fit-margin-bottom="0"
     inkscape:document-rotation="0" /><g
     id="g859"
     inkscape:groupmode="layer"
     inkscape:label="ficha_catalografica_20210830174408"
     transform="matrix(1.3333333,0,0,-1.3333333,-160.10666,434.98666)"><g
       id="g1808"><path
         d="M 120.33,75.889999 H 474.66 V 325.99 H 120.33 Z"
         style="fill:none;stroke:#000000;stroke-width:0.5;stroke-linecap:butt;stroke-linejoin:miter;stroke-miterlimit:10;stroke-dasharray:none;stroke-opacity:1"
         id="path861"
         sodipodi:nodetypes="ccccc" /><text
         transform="matrix(1,0,0,-1,125.33,293.98)"
         style="font-variant:normal;font-weight:normal;font-size:10px;font-family:Times;-inkscape-font-specification:Times-Roman;writing-mode:lr-tb;fill:#000000;fill-opacity:1;fill-rule:nonzero;stroke:none"
         id="text865"><tspan
           x="0 5.5599999 10.56 15.56 20.559999"
           y="0"
           sodipodi:role="line"
           id="tspan863">F985c</tspan></text><text
         transform="matrix(1,0,0,-1,175.33,305.98)"
         style="font-variant:normal;font-weight:normal;font-size:10px;line-height:1.4;font-family:Times;-inkscape-font-specification:Times-Roman;writing-mode:lr-tb;fill:#000000;fill-opacity:1;fill-rule:nonzero;stroke:none"
         id="text895"><tspan
           sodipodi:role="line"
           id="tspan893"
           x="0"
           y="0">Furlan, André</tspan><tspan
           sodipodi:role="line"
           x="0"
           y="14.767656"
           id="tspan1047">    Caracterização de voice spoofing para fins de verificação de</tspan><tspan
           sodipodi:role="line"
           x="0"
           y="29.535313"
           id="tspan1049">locutores com base na transformada wavelet e na análise</tspan><tspan
           sodipodi:role="line"
           x="0"
           y="44.302967"
           id="tspan1051">paraconsistente de caractersticas / André Furlan. -- São José do Rio</tspan><tspan
           sodipodi:role="line"
           x="0"
           y="59.070625"
           id="tspan1053">Preto, 2021</tspan><tspan
           sodipodi:role="line"
           x="0"
           y="73.83828"
           id="tspan1055">    90 p. : il., tabs.</tspan><tspan
           sodipodi:role="line"
           x="0"
           y="88.605934"
           id="tspan1087" /><tspan
           sodipodi:role="line"
           x="0"
           y="103.37359"
           id="tspan1057">    Dissertação (mestrado) - Universidade Estadual Paulista (Unesp),</tspan><tspan
           sodipodi:role="line"
           x="0"
           y="118.14125"
           id="tspan1059">Instituto de Biociências Letras e Ciências Exatas, São José do Rio</tspan><tspan
           sodipodi:role="line"
           x="0"
           y="132.90891"
           id="tspan1061">Preto</tspan><tspan
           sodipodi:role="line"
           x="0"
           y="147.67656"
           id="tspan1063">    Orientador: Rodrigo Capobianco Guido</tspan><tspan
           sodipodi:role="line"
           x="0"
           y="162.44421"
           id="tspan1065"> </tspan><tspan
           sodipodi:role="line"
           x="0"
           y="177.21187"
           id="tspan1089">    1. Ciência da computação. 2. Processamento de sinais Técnicas</tspan><tspan
           sodipodi:role="line"
           x="0"
           y="191.97952"
           id="tspan1067">digitais. 3. Sistemas de detecção de intrusão (Medidas de segurança).</tspan><tspan
           sodipodi:role="line"
           x="0"
           y="206.74718"
           id="tspan1071">4. Intrusion detection systems (Computer security). 5.</tspan><tspan
           sodipodi:role="line"
           x="0"
           y="221.51485"
           id="tspan1093">Reconhecimento de padrões. I. Título.</tspan></text><text
         transform="scale(1,-1)"
         style="font-variant:normal;font-weight:normal;font-size:9px;font-family:Times;-inkscape-font-specification:Times-Roman;writing-mode:lr-tb;fill:#000000;fill-opacity:1;fill-rule:nonzero;stroke:none"
         id="text903"
         x="130.49049"
         y="-61.712997"><tspan
           x="130.49049 135.49451 137.99651 141.4975 143.9995 147.9955 154.9975 158.9935 161.2435 165.7435 169.7395 171.9895 176.4895 180.4855 183.4825 187.4785 191.4745 195.4705 199.9705 202.2205 206.21649 210.71649 213.21849 217.71849 224.7205 228.71649 231.21849 233.7205 237.71649 241.71249 243.96249 248.46249 252.4585 254.7085 257.70551 260.20749 264.20349 268.70349 272.69949 276.2005 278.4505 282.4465 286.4425 288.94449 292.94049 295.4425 299.9425 304.4425 307.43951 311.43552 314.4325 316.93451 320.93051 324.92651 328.42749 330.67749 335.17749 339.17349 341.42349 347.92151 352.42151 356.41751 359.91849 364.41849 366.66849 368.91849 374.92151 377.42349 381.92349 384.42551 386.92752 391.42752 393.9295 397.92551 401.92151 405.91751 408.16751 412.66751 417.16751 419.41751 422.41452 426.91452 430.4155 432.91751 435.41949 437.92151 442.42151 444.92352 449.42352 451.67352 456.17352"
           y="-61.712997"
           sodipodi:role="line"
           id="tspan897">Sistema de geração automática de fichas catalográficas da Unesp. Biblioteca do Instituto de</tspan><tspan
           x="128.11 134.11301 136.61501 141.11501 145.11099 147.61301 151.60899 156.10899 160.105 162.60699 166.603 170.104 172.354 177.853 181.849 184.351 187.34799 191.34399 194.845 197.095 201.091 203.341 209.34399 211.84599 215.842 220.342 224.338 226.84 230.836 234.33699 236.58699 242.086 246.586 250.582 253.084 257.07999 260.58099 262.83099 265.08099 270.08499 274.08099 278.58099 280.83099 284.332 288.832 292.33301 296.32901 298.57901 303.07901 307.57901 309.82901 315.832 318.33401 322.83401 325.08401 330.08801 333.08499 337.08099 339.58301 344.08301 346.33301 348.58301 355.08099 359.077 363.577 368.077 371.578 373.828 376.82501 381.32501 384.32199 388.82202 392.81802 396.814 399.31601 403.81601 408.31601 411.81702 414.06702 418.56702 422.56302 425.065 429.565 431.815 435.811 440.311 442.81302 447.31302 450.31 453.30701 457.30301 460.30002"
           y="-49.712997"
           sodipodi:role="line"
           id="tspan899">Biociências Letras e Ciências Exatas, São José do Rio Preto. Dados fornecidos pelo autor(a).</tspan><tspan
           x="230.5975 236.0965 239.5975 243.0985 247.0945 249.3445 252.34149 254.84349 258.83951 263.33951 267.33551 269.58551 274.08551 278.08151 282.58151 284.83151 289.33151 293.83151 298.33151 302.32751 304.57751 308.07849 312.07449 315.0715 317.3215 324.32349 328.82349 333.32349 335.8255 338.82251 341.32449 345.3205 349.3165 353.8165 357.8125"
           y="-25.713001"
           sodipodi:role="line"
           id="tspan901">Essa ficha não pode ser modificada.</tspan></text></g></g></svg>
