<?xml version="1.0" encoding="UTF-8" standalone="no"?>
<svg
   xmlns:dc="http://purl.org/dc/elements/1.1/"
   xmlns:cc="http://creativecommons.org/ns#"
   xmlns:rdf="http://www.w3.org/1999/02/22-rdf-syntax-ns#"
   xmlns:svg="http://www.w3.org/2000/svg"
   xmlns="http://www.w3.org/2000/svg"
   xmlns:sodipodi="http://sodipodi.sourceforge.net/DTD/sodipodi-0.dtd"
   xmlns:inkscape="http://www.inkscape.org/namespaces/inkscape"
   width="158.75mm"
   height="22.249357mm"
   viewBox="0 0 600.00001 84.092059"
   version="1.1"
   id="svg60"
   sodipodi:docname="Logo_Unesp.svg"
   inkscape:version="0.92.3 (2405546, 2018-03-11)">
  <metadata
     id="metadata66">
    <rdf:RDF>
      <cc:Work
         rdf:about="">
        <dc:format>image/svg+xml</dc:format>
        <dc:type
           rdf:resource="http://purl.org/dc/dcmitype/StillImage" />
        <dc:title></dc:title>
      </cc:Work>
    </rdf:RDF>
  </metadata>
  <defs
     id="defs64" />
  <sodipodi:namedview
     pagecolor="#ffffff"
     bordercolor="#666666"
     borderopacity="1"
     objecttolerance="10"
     gridtolerance="10"
     guidetolerance="10"
     inkscape:pageopacity="0"
     inkscape:pageshadow="2"
     inkscape:window-width="1438"
     inkscape:window-height="857"
     id="namedview62"
     showgrid="false"
     units="mm"
     fit-margin-top="0"
     fit-margin-left="0"
     fit-margin-right="0"
     fit-margin-bottom="0"
     inkscape:zoom="0.54888188"
     inkscape:cx="811.36112"
     inkscape:cy="-67.44195"
     inkscape:window-x="0"
     inkscape:window-y="42"
     inkscape:window-maximized="0"
     inkscape:current-layer="svg60" />
  <g
     id="g82"
     transform="matrix(0.08874651,0,0,0.08874651,-2.0962458,-2.3270808)">
    <path
       d="M 436.519,327.139 V 788.408 H 315.58 v -54.7488 c -17.5181,22.2969 -38.0858,39.1098 -61.4079,50.2535 -23.2996,11.1543 -49.5248,16.8 -78.6295,16.8 -50.6858,0 -88.6843,-13.2933 -113.972,-39.8268 -25.3866,-26.6091 -37.95,-66.4724 -37.95,-119.333 v -314.414 h 123.533 v 278.787 c 0,32.8594 5.52283,56.1827 16.5165,70.2402 10.9961,14.0469 29.2406,20.9894 54.7382,20.9894 28.8201,0 51.8469,-8.69764 68.9315,-26.0528 17.0846,-17.3811 25.6453,-41.1496 25.6453,-71.1177 V 327.139 h 123.534 z m 1480.37,646.636 V 327.566 h 117.456 v 62.4213 c 17.8134,-27.2268 37.8012,-46.9169 59.6669,-59.3811 21.8657,-12.4535 47.7945,-18.6791 77.4803,-18.6791 56.7626,0 102.964,22.4457 138.307,67.2024 35.3303,44.8913 53.0079,103.828 53.0079,176.675 0,73.8602 -17.6776,133.822 -53.0079,179.727 -35.3433,45.9047 -80.9516,68.9433 -136.714,68.9433 -29.4012,0 -55.6146,-6.23858 -78.6295,-18.678 -23.0386,-12.4642 -42.2976,-30.574 -57.5055,-54.3177 v 242.296 h -120.061 z m 323.237,-412.893 c 0,-46.3618 -8.8193,-81.828 -26.3492,-106.312 -17.5169,-24.4594 -42.8787,-36.639 -76.3193,-36.639 -32.7236,0 -57.7878,12.1795 -74.8724,36.5031 -17.0846,24.3236 -25.6346,59.8028 -25.6346,106.448 0,43.5827 8.9823,77.3315 26.9315,101.086 17.961,23.7437 43.311,35.615 76.1823,35.615 31.1433,0 55.4539,-12.1559 73.2803,-36.4913 17.8134,-24.3354 26.7815,-57.776 26.7815,-100.209 z m -666.781,87.9059 c 2.8665,18.3437 10.9937,32.4142 24.4843,42.1358 15.8008,11.4024 39.5303,17.2453 71.2417,17.2453 24.052,0 42.6921,-4.11378 55.911,-12.1689 13.1315,-8.01614 19.6913,-19.4067 19.6913,-34.1799 0,-20.8524 -24.6201,-36.7028 -73.8602,-47.0669 -20.1236,-4.24843 -36.0591,-7.97953 -47.9315,-11.0067 -60.0862,-15.3543 -101.642,-33.352 -124.99,-54.3154 -23.2736,-20.8772 -35.0469,-49.2413 -35.0469,-84.8681 0,-47.2004 17.1343,-84.5327 51.1181,-112.094 34.0713,-27.5965 80.2465,-41.4201 138.456,-41.4201 61.6925,0 110.265,13.7256 145.41,41.1366 35.2193,27.4618 53.8618,66.0531 56.1957,115.861 h -120.074 c -0.8646,-19.5555 -8.2524,-34.6394 -22.2969,-45.4724 -13.898,-10.722 -33.4535,-16.0713 -58.3689,-16.0713 -23.4591,0 -40.8283,3.47126 -52.2685,10.5744 -11.4378,7.09016 -17.2453,17.6528 -17.2453,31.8472 0,18.3933 30.6744,34.7858 92.1071,48.8185 14.0091,3.1878 25.2,5.72008 33.4524,7.65945 61.3961,14.4165 103.374,31.7728 125.869,52.1303 22.3961,20.3091 33.737,48.9567 33.737,86.028 0,52.4386 -18.3697,92.3031 -55.3311,119.777 -36.887,27.4122 -90.6484,41.1366 -161.037,41.1366 -63.7181,0 -113.552,-14.3421 -149.451,-42.8776 -34.6512,-27.5232 -52.6122,-65.1768 -53.8476,-112.809 h 124.076 z m -475.42,-139.172 h 181.594 c -1.161,-31.1433 -9.339,-54.8244 -24.7689,-71.1189 -15.4039,-16.2803 -37.6524,-24.3354 -66.4606,-24.3354 -26.8063,0 -47.9799,8.23937 -63.4465,24.6201 -15.3791,16.3441 -24.3236,39.9756 -26.9185,70.8343 z m 179.865,139.172 h 123.1 c -12.4524,48.6591 -37.5543,86.7059 -75.3189,114.267 -37.8248,27.5965 -83.8535,41.4201 -138.158,41.4201 -66.7571,0 -119.717,-22.3961 -158.727,-67.213 C 989.6483,692.4557 970.179,631.69 970.179,554.94 c 0,-75.4406 19.2224,-135.021 57.6413,-178.566 38.4803,-43.6311 91.0937,-65.3244 157.863,-65.3244 70.8094,0 125.461,21.4098 163.941,64.3122 38.4201,42.828 57.6413,103.828 57.6413,183.05 0,8.84409 0,15.3673 -0.1488,19.8402 -0.1347,4.34764 -0.5799,8.54764 -1.1599,12.463 h -308.031 c 1.7304,36.2079 10.5626,63.4346 26.4862,81.8161 15.9354,18.3933 38.9622,27.522 68.9445,27.522 21.2846,0 38.6906,-4.18701 52.1433,-12.4642 13.6122,-8.3622 24.3236,-21.2846 32.2913,-38.8004 z m -768.705,139.622 v -461.269 h 120.94 v 54.75 c 17.3811,-22.3098 37.6535,-39.1098 61.1114,-50.2654 23.4591,-11.1425 49.6724,-16.8012 78.4925,-16.8012 50.9705,0 89.0799,13.1811 114.417,39.6921 25.337,26.4969 37.937,66.176 37.937,119.479 v 314.414 h -123.534 v -278.787 c 0,-33.1677 -5.65748,-56.7874 -16.8,-70.8201 -11.1543,-14.1933 -29.2524,-21.2965 -54.4535,-21.2965 -29.1165,0 -52.1433,8.69646 -69.0791,26.0764 -16.937,17.3811 -25.4976,41.1248 -25.4976,71.1059 v 273.722 h -123.534 z"
       id="text"
       inkscape:connector-curvature="0"
       style="fill:#000000" />
    <path
       d="m 2900.07,318.357 76.3039,-132.272 h -152.542 l 76.2378,132.272 z m -92.2571,-122.987 -76.2378,132.207 h 152.541 L 2807.8133,195.37 Z m 0,282.915 76.3028,-132.272 h -152.541 l 76.2378,132.272 z m -92.2583,-123.052 -76.2378,132.27 h 152.542 l -76.3039,-132.27 z m -15.9531,-9.21969 h -152.542 l 76.3039,132.272 76.2378,-132.272 z m -76.2378,-150.644 -76.3039,132.207 h 152.542 l -76.2378,-132.207 z m 15.9531,-9.28465 76.2378,132.272 76.3039,-132.272 h -152.542 z m 76.2378,-150.644 -76.2378,132.206 h 152.542 l -76.3039,-132.206 z m -92.1909,122.987 76.2378,-132.206 h -152.542 l 76.3039,132.206 z m -92.2583,-122.987 -76.3028,132.206 h 152.541 l -76.2378,-132.206 z m 0,282.915 76.2378,-132.272 h -152.541 l 76.3028,132.272 z m -92.2571,-122.529 -76.0417,131.748 h 152.083 l -76.0417,-131.748 z"
       id="map"
       inkscape:connector-curvature="0"
       style="fill:#0093dd" />
    <text
       id="text70"
       y="328.16495"
       x="3235.9946"
       style="font-style:normal;font-weight:normal;font-size:195.27182007px;line-height:1.25;font-family:sans-serif;letter-spacing:0px;word-spacing:0px;fill:#000000;fill-opacity:1;stroke:none;stroke-width:4.88179588"
       xml:space="preserve"><tspan
         style="font-style:normal;font-variant:normal;font-weight:normal;font-stretch:normal;font-family:'Mukti Narrow';-inkscape-font-specification:'Mukti Narrow';stroke-width:4.88179588"
         y="328.16495"
         x="3235.9946"
         id="tspan68"
         sodipodi:role="line">UNIVERSIDADE ESTADUAL PAULISTA</tspan><tspan
         id="tspan72"
         style="font-style:normal;font-variant:normal;font-weight:normal;font-stretch:normal;font-family:'Mukti Narrow';-inkscape-font-specification:'Mukti Narrow';stroke-width:4.88179588"
         y="576.31873"
         x="3235.9946"
         sodipodi:role="line">&quot;JÚLIO DE MESQUITA FILHO&quot;</tspan><tspan
         id="tspan74"
         style="font-style:normal;font-variant:normal;font-weight:normal;font-stretch:normal;font-family:'Mukti Narrow';-inkscape-font-specification:'Mukti Narrow';stroke-width:4.88179588"
         y="824.47253"
         x="3235.9946"
         sodipodi:role="line">Campus de São José do Rio Preto</tspan></text>
  </g>
</svg>
