<?xml version="1.0" encoding="UTF-8" standalone="no"?>
<!-- Created with Inkscape (http://www.inkscape.org/) -->

<svg
   xmlns:dc="http://purl.org/dc/elements/1.1/"
   xmlns:cc="http://creativecommons.org/ns#"
   xmlns:rdf="http://www.w3.org/1999/02/22-rdf-syntax-ns#"
   xmlns:svg="http://www.w3.org/2000/svg"
   xmlns="http://www.w3.org/2000/svg"
   xmlns:sodipodi="http://sodipodi.sourceforge.net/DTD/sodipodi-0.dtd"
   xmlns:inkscape="http://www.inkscape.org/namespaces/inkscape"
   width="210mm"
   height="297mm"
   viewBox="0 0 210 297"
   version="1.1"
   id="svg8"
   inkscape:version="0.92.3 (2405546, 2018-03-11)"
   sodipodi:docname="efeitoGibbs.svg">
  <defs
     id="defs2">
    <marker
       inkscape:stockid="Arrow1Lstart"
       orient="auto"
       refY="0.0"
       refX="0.0"
       id="Arrow1Lstart"
       style="overflow:visible"
       inkscape:isstock="true">
      <path
         id="path4665"
         d="M 0.0,0.0 L 5.0,-5.0 L -12.5,0.0 L 5.0,5.0 L 0.0,0.0 z "
         style="fill-rule:evenodd;stroke:#000000;stroke-width:1pt;stroke-opacity:1;fill:#000000;fill-opacity:1"
         transform="scale(0.8) translate(12.5,0)" />
    </marker>
    <marker
       inkscape:stockid="Arrow1Lend"
       orient="auto"
       refY="0.0"
       refX="0.0"
       id="Arrow1Lend"
       style="overflow:visible;"
       inkscape:isstock="true">
      <path
         id="path4668"
         d="M 0.0,0.0 L 5.0,-5.0 L -12.5,0.0 L 5.0,5.0 L 0.0,0.0 z "
         style="fill-rule:evenodd;stroke:#000000;stroke-width:1pt;stroke-opacity:1;fill:#000000;fill-opacity:1"
         transform="scale(0.8) rotate(180) translate(12.5,0)" />
    </marker>
    <inkscape:path-effect
       effect="powerstroke"
       id="path-effect3753"
       is_visible="true"
       offset_points="0,0.13229166"
       sort_points="true"
       interpolator_type="CubicBezierJohan"
       interpolator_beta="0.2"
       start_linecap_type="zerowidth"
       linejoin_type="extrp_arc"
       miter_limit="4"
       end_linecap_type="zerowidth" />
    <inkscape:path-effect
       effect="simplify"
       id="path-effect3751"
       is_visible="true"
       steps="1"
       threshold="0.000408163"
       smooth_angles="360"
       helper_size="0"
       simplify_individual_paths="false"
       simplify_just_coalesce="false"
       simplifyindividualpaths="false"
       simplifyJustCoalesce="false" />
    <marker
       inkscape:stockid="Arrow1Lstart"
       orient="auto"
       refY="0"
       refX="0"
       id="Arrow1Lstart-5"
       style="overflow:visible"
       inkscape:isstock="true">
      <path
         inkscape:connector-curvature="0"
         id="path4665-3"
         d="M 0,0 5,-5 -12.5,0 5,5 Z"
         style="fill:#000000;fill-opacity:1;fill-rule:evenodd;stroke:#000000;stroke-width:1.00000003pt;stroke-opacity:1"
         transform="matrix(0.8,0,0,0.8,10,0)" />
    </marker>
  </defs>
  <sodipodi:namedview
     id="base"
     pagecolor="#ffffff"
     bordercolor="#666666"
     borderopacity="1.0"
     inkscape:pageopacity="0.0"
     inkscape:pageshadow="2"
     inkscape:zoom="0.98994949"
     inkscape:cx="192.67822"
     inkscape:cy="892.66667"
     inkscape:document-units="mm"
     inkscape:current-layer="layer1"
     showgrid="false"
     inkscape:window-width="1360"
     inkscape:window-height="740"
     inkscape:window-x="0"
     inkscape:window-y="22"
     inkscape:window-maximized="0" />
  <metadata
     id="metadata5">
    <rdf:RDF>
      <cc:Work
         rdf:about="">
        <dc:format>image/svg+xml</dc:format>
        <dc:type
           rdf:resource="http://purl.org/dc/dcmitype/StillImage" />
        <dc:title></dc:title>
      </cc:Work>
    </rdf:RDF>
  </metadata>
  <g
     inkscape:label="Camada 1"
     inkscape:groupmode="layer"
     id="layer1">
    <g
       id="g3777">
      <g
         id="g3719">
        <path
           style="fill:none;stroke:#000000;stroke-width:0.26458332px;stroke-linecap:butt;stroke-linejoin:miter;stroke-opacity:1"
           d="M 37.952272,20.376039 V 87.995227"
           id="path3713"
           inkscape:connector-curvature="0" />
        <path
           style="fill:none;stroke:#000000;stroke-width:0.26458332px;stroke-linecap:butt;stroke-linejoin:miter;stroke-opacity:1"
           d="m 32.606882,79.709874 c 91.406178,0 91.673448,0 91.673448,0"
           id="path3715"
           inkscape:connector-curvature="0" />
      </g>
      <path
         inkscape:connector-curvature="0"
         d="m 38.693227,40.731078 c 0.13339,-0.06121 0.253413,-0.182481 0.400172,-0.183629 0.06322,-5.29e-4 -0.10717,0.142679 -0.05685,0.180943 0.149672,0.113808 0.526254,-0.282919 0.604118,0.0085 0.01294,0.04846 -0.009,0.09991 -0.01344,0.149866 0.149244,-0.06348 0.285919,-0.179457 0.447731,-0.190445 0.05592,-0.0038 -0.09572,0.14768 -0.04177,0.162872 0.101661,0.02863 0.205306,-0.05164 0.304091,-0.089 0.154562,-0.05846 0.291865,-0.168751 0.454512,-0.197943 0.03851,-0.0069 0.01495,0.08377 0.04552,0.108201 0.04029,0.0322 0.09845,0.03081 0.147669,0.04621 0.06871,0.0054 0.13743,0.01074 0.206145,0.01611 0.10481,-0.01992 0.207841,-0.06434 0.314428,-0.05978 0.05426,0.0024 0.0887,0.07061 0.142296,0.07935 0.08902,0.0145 0.180337,-0.01815 0.270333,-0.01209 0.525827,0.03551 -0.223941,0.08787 0.453101,0.01413 0.07288,-0.0021 0.146307,-0.01521 0.218628,-0.006 0.287727,0.03658 -0.05632,0.139541 0.379878,0.0021 0.08238,-0.02596 0.471266,-0.219631 0.579816,-0.177694 0.03359,0.01296 0.0062,0.07176 0.0092,0.107645 -0.01365,0.04052 -0.08297,0.113591 -0.04096,0.12155 0.0828,0.01569 0.157038,-0.06218 0.238395,-0.08415 0.06024,-0.01627 0.122398,-0.02774 0.18475,-0.03011 0.03772,-0.0013 0.07587,0.03083 0.111673,0.01887 0.555477,-0.185685 0.196051,-0.200597 0.500189,-0.16953 0.278313,-0.285237 0.09372,0.07099 0.144241,0.05893 0.08428,-0.02014 0.149166,-0.09062 0.230843,-0.119565 0.01558,-0.0055 0.02962,0.01466 0.04443,0.02201 0.03883,-0.0074 0.07944,-0.0085 0.116486,-0.0223 0.07526,-0.02807 0.145391,-0.06832 0.218088,-0.102487 0.240112,0.134975 0.453236,-0.347362 0.681188,-0.282089 0.08887,0.02545 -0.164962,0.123613 -0.174445,0.215562 -0.0053,0.05189 0.10288,-0.01757 0.15467,-0.02381 0.05105,-0.0062 0.102463,-0.0089 0.153696,-0.01336 0.08695,-0.03052 0.16881,-0.087 0.260848,-0.09156 0.03256,-0.0016 0.04136,0.05039 0.06205,0.07558 0.04459,0.0091 0.08859,0.03299 0.133763,0.02742 0.103103,-0.0127 0.198181,-0.06576 0.30094,-0.081 0.134657,-0.01998 0.258537,0.01667 0.387612,0.04335 0.133032,-0.04727 0.657222,-0.248759 0.832133,-0.258792 0.05491,-0.0031 0.09621,0.07244 0.150918,0.06672 0.37541,-0.03921 0.476327,-0.323086 0.552151,0.120674 -0.587856,-0.420362 0.698101,-0.437875 0.703641,-0.194588 0.0016,0.07164 -0.14827,0.211394 -0.07744,0.20053 0.203097,-0.03115 0.349748,-0.239892 0.552469,-0.273399 0.07172,-0.01185 -0.117295,0.129013 -0.09266,0.197398 0.01844,0.0512 0.108845,-0.0011 0.163267,-0.0013 0.111,-0.03999 0.218964,-0.08971 0.333004,-0.119965 0.06782,-0.01799 0.139581,-0.01468 0.209145,-0.02384 0.186042,-0.02453 0.248063,-0.0454 0.431835,-0.04828 0.04319,-7.94e-4 0.08853,0.02379 0.129233,0.0093 0.142293,-0.05053 0.271092,-0.133075 0.406638,-0.199612 -0.0079,0.04268 -0.0158,0.08537 -0.02371,0.128048 0.09829,-0.03846 0.305173,-0.220431 0.294876,-0.115385 -0.01553,0.158443 -0.475189,0.327991 -0.318458,0.355936 0.216448,0.0386 0.372279,-0.245504 0.582837,-0.308795 0.0417,-0.01254 -0.03142,0.123095 0.01156,0.13013 0.103219,0.01691 0.202538,-0.05233 0.303808,-0.07849 0.09304,-0.01902 0.185224,-0.07125 0.279122,-0.05705 0.0416,0.0063 0.04254,0.07261 0.06381,0.108911 0.182396,-0.08316 0.347221,-0.235456 0.54719,-0.249482 0.07801,-0.0055 -0.125886,0.148638 -0.08845,0.217303 0.03316,0.06083 0.141322,0.02106 0.207836,0.0016 0.16996,-0.04954 0.326612,-0.136707 0.489921,-0.20506 -0.0067,0.05432 -0.07466,0.159327 -0.02006,0.162968 0.134771,0.009 0.249452,-0.106826 0.380651,-0.138928 0.631269,-0.154456 -0.210934,0.114083 0.104984,0.177695 0.116165,0.02339 0.218443,-0.0945 0.333314,-0.123603 0.04899,-0.01241 0.101071,5.29e-4 0.151606,7.94e-4 0.09821,-0.0346 0.208939,-0.162945 0.294638,-0.103797 0.06938,0.04789 -0.114832,0.131282 -0.136943,0.212636 -0.0078,0.0287 0.03201,0.06741 0.06161,0.06453 0.09674,-0.0094 0.178374,-0.108606 0.274897,-0.09722 0.04297,0.0051 -0.02082,0.08398 -0.03125,0.125968 0.187733,-0.100488 0.375468,-0.200977 0.5632,-0.301464 -0.206605,0.358212 -0.10446,0.08021 0.102129,0.130745 0.03353,0.0082 -0.02244,0.08852 0.0088,0.103166 0.04278,0.02003 0.368803,-0.06079 0.387298,-0.05876 0.03413,0.0038 0.04852,0.0486 0.07277,0.0729 -0.0058,0.344016 0.540869,-0.452465 0.712933,-0.26609 0.04482,0.04854 -0.06962,0.117743 -0.07463,0.183619 -0.0029,0.03747 0.01799,0.112848 0.05311,0.09945 0.268542,-0.102476 0.472229,-0.389068 0.758944,-0.409327 0.160605,-0.01135 -0.201266,0.251358 -0.301897,0.377035 0.296965,-0.03711 0.549587,-0.212233 0.834197,-0.285571 0.422103,-0.108762 0.03096,0.06951 0.375179,0.05278 0.1109,-0.0054 0.217792,-0.101595 0.32503,-0.07283 0.05153,0.01381 1.14e-4,0.106707 1.72e-4,0.160061 0.235299,-0.04168 0.402098,-0.112722 0.621281,0.0019 0.03744,0.01955 0.06862,0.07785 0.108823,0.0649 0.647687,-0.20876 0.663054,-0.552364 0.588788,-0.134872 0.07921,-0.01122 0.158126,-0.04253 0.237636,-0.03366 0.04103,0.0046 0.07966,0.03621 0.101158,0.07146 0.02196,0.03601 -0.02297,0.131284 0.01879,0.125164 0.167577,-0.02455 0.301263,-0.22324 0.468519,-0.196599 0.0932,0.01484 -0.08846,0.166728 -0.132691,0.25009 0.189513,-0.08545 0.379023,-0.170902 0.568537,-0.256356 0.72145,-0.290586 0.0013,0.115082 0.585279,0.09277 0.111419,-0.0043 0.233402,-0.09735 0.331542,-0.04442 0.06252,0.03372 -0.09161,0.20834 -0.02066,0.212076 0.189592,0.01 0.359169,-0.123195 0.538752,-0.184795 0.145217,-0.0378 0.291947,-0.156592 0.435647,-0.113391 0.07494,0.02252 -0.127735,0.231771 -0.04952,0.229479 0.215948,-0.0063 0.3864,-0.211837 0.59979,-0.245592 0.05017,-0.0079 0.0047,0.14481 0.05539,0.14195 0.976321,-0.05507 0.171088,-0.262217 0.626353,-0.126551 0.108369,0.176716 0.280049,-0.09637 0.394627,-0.03093 0.06422,0.03668 -0.180721,0.152213 -0.116475,0.188852 0.08448,0.04818 0.17807,-0.08642 0.274539,-0.0987 0.02564,-0.0033 0.05399,0.0313 0.05244,0.05709 -0.003,0.04995 -0.04271,0.09051 -0.06406,0.135766 0.146588,-0.07336 0.452665,-0.243748 0.637331,-0.283584 0.03726,-0.008 0.07554,0.01027 0.113205,0.01614 0.03893,0.0061 0.09476,-0.0131 0.11653,0.01974 0.115864,0.174761 -0.269068,0.144361 0.160782,0.112455 0.07203,0.234547 -0.03325,0.01164 0.334704,0.01654 0.03853,5.29e-4 0.03547,0.09729 0.07321,0.08947 0.146838,-0.03043 0.63396,-0.319033 0.791554,-0.264701 0.05062,0.01746 0.0037,0.107024 0.0055,0.160537 0.19036,0.0422 0.369297,-0.103845 0.555725,-0.08487 0.04173,0.0043 0.04478,0.08291 0.0857,0.09216 0.0772,0.01746 0.158208,-0.02976 0.236654,-0.01926 0.04096,0.0055 0.06734,0.04929 0.105529,0.06508 0.04625,0.01913 0.09673,0.02569 0.145103,0.03855 0.262286,0.02209 0.49894,-0.128426 0.758052,-0.131688 0.0492,-5.29e-4 0.09393,0.04313 0.142801,0.03739 0.598334,-0.07027 0.118491,-0.13333 0.50233,-0.06261 0.119113,0.333731 -0.08728,-0.110866 0.381037,0.03686 0.05953,0.01879 -0.116655,0.184081 -0.05442,0.179189 0.168754,-0.01326 0.305501,-0.146253 0.461819,-0.211207 0.112657,-0.04681 0.264658,-0.216122 0.344417,-0.123809 0.07594,0.0879 -0.142206,0.183701 -0.21331,0.275551 0.03012,-0.009 0.483854,-0.146855 0.51862,-0.147207 0.03162,-2.65e-4 0.03771,0.05676 0.06786,0.06631 0.005,0.0016 0.278463,2.06e-4 0.287406,0.0086 0.02866,0.02688 -0.0051,0.07842 -0.0076,0.117636 1.258961,-0.570895 0.02421,-0.105423 0.574736,-0.170905 0.100025,-0.01191 0.194246,-0.05381 0.292645,-0.07537 0.08449,-0.01852 0.170632,-0.02857 0.255603,-0.04475 0.101417,-0.01931 0.228873,-0.133043 0.303506,-0.06171 0.06553,0.06263 -0.07071,0.166946 -0.106066,0.250423 0.225729,0.137594 0.520703,-0.318281 0.734912,-0.184468 0.08555,0.05344 -0.200821,0.197497 -0.132749,0.271929 0.07342,0.08028 0.210468,-0.06452 0.319201,-0.06804 0.0499,-0.0016 0.09336,0.03543 0.140033,0.05315 0.133422,-0.04751 0.266846,-0.09501 0.400267,-0.14252 0.11185,-0.03611 0.218834,-0.09448 0.33555,-0.108324 0.0345,-0.0041 0.08348,0.02365 0.08642,0.05828 0.0048,0.05689 -0.124688,0.165191 -0.06817,0.157124 0.211336,-0.03016 0.401121,-0.263121 0.636481,-0.259475 0.02503,2.65e-4 0.03444,0.03634 0.05166,0.0545 0.247727,0.119744 -0.158297,-0.108476 -0.01648,0.206614 0.02334,0.05185 0.127381,-0.03658 0.170574,2.65e-4 0.03385,0.02898 -0.05851,0.14215 -0.01492,0.132839 0.724347,-0.154786 0.327715,-0.366266 0.625821,-0.177403 0.07547,-0.01003 0.150945,-0.02005 0.226415,-0.03007 0.02806,0.02307 0.04845,0.06269 0.08419,0.06917 0.06414,0.01164 0.130468,-0.02981 0.194685,-0.01857 0.03,0.0052 0.03592,0.05561 0.06519,0.06401 0.04636,0.01331 0.09641,-0.0036 0.144634,-0.0038 0.04859,-2.51e-4 0.09717,0.0016 0.145759,0.0024 0.01635,0.02384 0.02016,0.07229 0.04905,0.07149 0.167143,-0.0046 0.507002,-0.243682 0.665845,-0.138258 0.03243,0.02154 0.02777,0.07308 0.04721,0.106791 0.0241,0.0418 0.05524,0.07914 0.08285,0.118703 0.07578,0.07298 0.640943,-0.429496 0.893106,-0.250563 0.05184,0.03679 -0.0066,0.154059 0.04935,0.184203 0.08831,0.04756 0.220057,-0.05499 0.300869,0.0044 0.05754,0.0423 -0.07488,0.215416 -0.0035,0.214212 0.21115,-0.0036 0.395041,-0.149428 0.592563,-0.224144 0.04864,0.02254 0.09727,0.04507 0.145913,0.06761 0.07036,1.48e-4 0.1447,-0.02291 0.211074,5.29e-4 0.03304,0.01162 0.04058,0.05839 0.05116,0.09178 0.01042,0.03293 -0.02204,0.09177 0.01058,0.103082 0.222814,0.07726 0.194477,-0.156305 0.190601,0.06617 0.10737,-0.05591 0.242207,-0.02794 0.351199,-0.07794 0.156025,-0.07158 0.308917,-0.343366 0.451478,-0.24774 0.479832,0.321865 -0.844484,0.388951 -0.145998,0.273973 0.03593,-0.0059 0.07278,0.0024 0.109173,0.0034 0.112982,-0.0554 0.217876,-0.131911 0.338947,-0.166203 0.02167,-0.0061 0.0083,0.04454 0.01654,0.06552 0.0083,0.02111 0.02876,0.03743 0.03246,0.05982 0.0049,0.02974 -0.03738,0.09517 -0.0077,0.09011 0.292184,-0.04975 0.396232,-0.293243 0.229491,-0.0028 0.1372,-0.06817 0.264734,-0.160888 0.411594,-0.204499 0.02765,-0.0082 0.05819,0.03668 0.05657,0.06548 -0.0035,0.06289 -0.13249,0.166124 -0.07019,0.175458 0.06793,0.01019 0.61364,-0.252915 0.712414,-0.250428 0.04273,0.0011 0.0031,0.08543 0.0046,0.128146 0.07723,-0.0149 0.153035,-0.04481 0.231691,-0.04471 0.03463,4.2e-5 0.06358,0.02781 0.09358,0.04512 0.02532,0.0146 0.04299,0.05508 0.07184,0.05033 0.09758,-0.01606 0.182565,-0.07659 0.276447,-0.107664 0.172794,-0.05719 0.171741,-0.04799 0.327578,-0.05312 0.0977,-0.04196 0.338606,-0.221972 0.293087,-0.125883 -0.08086,0.170693 -0.417155,0.196064 -0.415809,0.38494 0.0011,0.157753 0.259451,-0.21499 0.416957,-0.223907 0.09646,-0.0054 -0.293232,0.194279 -0.198167,0.211519 0.556373,0.100897 0.240866,-0.335246 0.372562,-0.139401 0.09584,-0.04832 0.180205,-0.14373 0.287531,-0.144944 0.05539,-5.29e-4 -0.137613,0.124595 -0.08525,0.142652 0.07907,0.02727 0.150704,-0.102182 0.233658,-0.09148 0.04123,0.0053 -0.08661,0.127643 -0.04682,0.115586 0.429226,-0.130064 0.447842,-0.40749 0.407093,-0.1411 -0.01143,0.03032 -0.0651,0.100944 -0.03428,0.09096 0.127227,-0.04124 0.219136,-0.173659 0.351366,-0.19372 0.06517,-0.0099 -0.162104,0.109029 -0.118403,0.158374 0.0457,0.0516 0.129984,-0.04627 0.193042,-0.07409 0.09125,-0.04026 0.176713,-0.0934 0.269492,-0.129995 0.04331,-0.01709 0.09093,-0.02008 0.136398,-0.03011 -0.07321,0.07138 -0.318318,0.240858 -0.219618,0.214148 0.162743,-0.04404 0.274281,-0.199935 0.427451,-0.270391 0.03579,-0.01646 -0.08416,0.07013 -0.06042,0.101566 0.02394,0.0317 0.104418,-0.06631 0.115784,-0.02824 0.01413,0.0473 -0.129902,0.09108 -0.08884,0.118473 0.04899,0.03268 0.108313,-0.04624 0.16247,-0.06936 0.07472,0.03544 0.167108,-0.111033 0.250275,-0.0827 0.01953,0.0066 -0.01117,0.06606 0.0089,0.06125 0.09759,-0.02334 0.175011,-0.153427 0.272214,-0.128519 0.07075,0.01812 -0.105016,0.102211 -0.149836,0.15988 -0.01857,0.02389 -0.02556,0.05483 -0.03834,0.08225 0,0 -1.12693,0.632069 -1.12693,0.632069 v 0 c -0.05839,0.0441 -0.116996,0.0879 -0.175167,0.132289 -0.02021,0.01543 -0.07957,0.06333 -0.05998,0.04712 0.07498,-0.062 0.178226,-0.09985 0.226144,-0.184528 0.03296,-0.05825 -0.117665,0.06382 -0.176199,0.09627 -0.08315,0.0461 -0.189526,0.213661 -0.248851,0.139369 -0.05884,-0.07369 0.134588,-0.132128 0.201882,-0.198189 0.02839,-0.03715 0.126905,-0.132493 0.08517,-0.111432 -0.16959,0.08558 -0.307248,0.227211 -0.478309,0.309814 -0.04613,0.02228 0.08808,-0.07212 0.09189,-0.123214 0.0021,-0.02787 -0.0578,-0.0024 -0.08337,0.0089 -0.509688,0.224791 -0.0779,0.09441 -0.415682,0.187182 0.07974,-0.08126 0.17041,-0.153078 0.239212,-0.243785 0.01265,-0.01667 0.0127,-0.06923 -0.007,-0.06232 -0.119936,0.04201 -0.223287,0.121404 -0.334933,0.182105 -0.0481,0.0127 -0.09695,0.02286 -0.144302,0.03812 -0.0653,0.02103 -0.171113,0.135552 -0.193309,0.07064 -0.02635,-0.07708 0.101361,-0.127553 0.152042,-0.191331 -0.120287,0.06279 -0.226872,0.166989 -0.360867,0.188365 -0.05696,0.0091 0.07128,-0.0924 0.09335,-0.145688 0.01,-0.02408 0.024,-0.0866 -5.29e-4,-0.07815 -0.141224,0.0484 -0.250439,0.171649 -0.39379,0.213326 -0.09922,0.02885 0.290902,-0.371113 0.162523,-0.263951 -0.08701,0.05282 -0.590732,0.381205 -0.779912,0.437222 -0.02582,0.0076 -0.04859,-0.02727 -0.07549,-0.02889 -0.04408,-0.0026 -0.125058,0.06016 -0.131443,0.01648 -0.0095,-0.06482 0.172207,-0.142109 0.110056,-0.1628 -0.09226,-0.03072 -0.180274,0.07294 -0.270412,0.109412 0.08472,-0.09192 0.372774,-0.236261 0.254169,-0.275758 -0.152042,-0.05063 -0.273237,0.178623 -0.428664,0.217649 -0.04011,0.01008 0.07635,-0.124658 0.03539,-0.118901 -0.133654,0.01879 -0.246256,0.110564 -0.369385,0.165847 -0.0113,-0.0295 -0.0024,-0.09057 -0.03388,-0.08849 -0.114207,0.0075 -0.216355,0.07478 -0.324533,0.112168 -0.06059,1.94e-4 -0.121761,-0.0077 -0.181789,5.3e-4 -0.0902,0.01243 -0.200957,0.124677 -0.266211,0.06118 -0.05741,-0.05586 0.187912,-0.227947 0.109019,-0.214131 -0.213664,0.03741 -0.367821,0.248149 -0.579284,0.296472 -0.141629,0.03236 0.356327,-0.399352 0.23151,-0.369272 -0.0645,0.01995 -0.130408,0.03582 -0.193495,0.05987 -0.01622,0.0062 -0.339278,0.172038 -0.433927,0.147786 -0.05139,-0.01318 0.01196,-0.167572 0.0068,-0.165815 -0.154916,0.05259 -0.2878,0.155663 -0.431699,0.233493 0.03644,-0.05416 0.103592,-0.09745 0.109315,-0.162468 0.0028,-0.03156 -0.06311,-0.02596 -0.09351,-0.01704 -0.104783,0.03073 -0.193723,0.105892 -0.299667,0.132332 -0.0688,0.01717 -0.06656,-0.196822 -0.167288,-0.140926 -0.361585,0.153287 -0.350076,0.275832 -0.350994,0.03935 -1.51e-4,-0.03884 0.04037,-0.109583 0.0021,-0.116509 -0.09486,-0.0172 -0.187817,0.08814 -0.281607,0.06585 -0.04513,-0.01072 -0.01368,-0.09176 -0.0205,-0.137634 -0.1241,0.02915 -0.248198,0.0583 -0.372295,0.08745 -0.05688,-0.02262 -0.119497,-0.03421 -0.170628,-0.06786 -0.04764,-0.03136 -0.06253,-0.11575 -0.119123,-0.122838 -0.379912,-0.04757 -0.807722,0.327611 -1.13185,-0.0104 -0.09071,0.0113 -0.25222,0.123108 -0.272135,0.03389 -0.02653,-0.118827 0.334121,-0.31323 0.213548,-0.296328 -0.247859,0.03474 -0.422963,0.277167 -0.65954,0.358846 -0.04765,0.01646 0.06641,-0.101666 0.04141,-0.145438 -0.0078,-0.01357 -0.271258,-0.01926 -0.274634,-0.01937 -0.04344,-0.005 -0.08748,-0.0062 -0.130326,-0.01492 -0.03349,-0.0068 -0.06466,-0.04055 -0.0976,-0.03142 -0.134747,0.03734 -0.245803,0.160007 -0.385527,0.165312 -0.05239,0.0021 0.07724,-0.115581 0.03971,-0.152178 -0.07539,-0.0735 -0.240397,0.08183 -0.313057,-0.04193 -0.14581,0.05743 -0.287412,0.126953 -0.437425,0.172273 -0.07282,0.02201 -0.182317,0.09025 -0.226452,0.02829 -0.04303,-0.06041 0.144598,-0.13 0.108029,-0.194532 -0.03812,-0.06727 -0.343466,0.14482 -0.38731,-0.02604 -0.06123,0.01381 -0.121033,0.04511 -0.183692,0.04142 -0.337812,-0.0199 0.355814,-0.146912 -0.01834,-0.189629 -0.103023,-0.01177 -0.189669,0.09415 -0.292782,0.105127 -0.03333,0.0035 -0.04247,-0.06699 -0.07597,-0.06587 -0.101404,0.0034 -0.196104,0.05217 -0.294156,0.07825 -0.03131,-0.02668 -0.064,-0.05183 -0.09393,-0.08005 -0.03068,-0.02893 -0.04551,-0.09076 -0.08768,-0.09119 -0.280723,-0.0028 -0.88933,0.355942 -1.026945,0.406772 -0.09284,0.03429 -0.265052,0.135146 -0.294125,0.04055 -0.0378,-0.122992 0.137549,-0.21749 0.206325,-0.326237 -0.341344,0.08492 -0.306094,0.09663 -0.609923,0.110975 -0.06465,0.003 -0.129651,0.0052 -0.194172,1.19e-4 -0.05104,-0.004 -0.102309,-0.04284 -0.151138,-0.02744 -0.524044,0.165309 -0.762127,0.505702 -0.122312,-0.1578 -0.119731,0.04962 -0.239133,0.100047 -0.359193,0.148868 -0.11,0.04473 -0.213844,0.151294 -0.330977,0.131778 -0.06356,-0.01058 0.138231,-0.132535 0.08756,-0.172336 -0.06355,-0.04992 -0.161496,0.08727 -0.235926,0.0558 -0.04467,-0.01889 0.0217,-0.09454 0.03253,-0.141804 -0.09347,0.03077 -0.186949,0.06154 -0.280424,0.09231 -0.08147,0.019 -0.162936,0.038 -0.244406,0.057 -0.0061,-0.03771 0.0199,-0.113464 -0.01831,-0.11313 -0.116938,0.0011 -0.217615,0.08769 -0.331034,0.116186 -0.267843,0.06729 -0.496811,-0.09092 -0.754303,0.09469 -0.09219,0.01611 -0.184388,0.03224 -0.27658,0.04836 7.94e-4,-0.05042 0.04661,-0.127672 0.0021,-0.151252 -0.06938,-0.03671 -0.156985,0.04517 -0.233725,0.02867 -0.03676,-0.0079 -0.02772,-0.101674 -0.06424,-0.09272 -0.180509,0.04427 -0.321016,0.224219 -0.506679,0.232728 -0.07804,0.0036 0.06387,-0.142598 0.09581,-0.213895 -5e-6,0 -0.415417,0.01691 -0.417229,0.01741 -0.154972,0.04317 -0.289179,0.172826 -0.450046,0.174299 -0.05726,5.29e-4 0.07775,-0.157464 0.02196,-0.170376 -0.992635,-0.229744 0.0077,0.293746 -0.47172,0.02384 -0.03865,-0.0066 -0.328727,-0.05926 -0.368827,-0.0535 -0.119076,0.01712 -0.23142,0.06583 -0.347131,0.09874 -0.05471,-0.0078 -0.108889,-0.02492 -0.164131,-0.02341 -0.292719,0.0081 -0.174953,0.109368 -0.297257,-0.04375 -0.139213,-0.248373 -0.10174,-0.123846 -0.423942,-0.02566 -0.519194,0.158211 0.15703,-0.350637 -0.614222,0.168402 -0.996897,0.479519 0.119644,-0.0074 -0.03004,-0.162594 -0.11498,-0.119229 -0.279627,0.23826 -0.444481,0.222173 -0.104413,-0.01019 0.15499,-0.149775 0.195741,-0.246443 0.01249,-0.02962 -0.02882,-0.08306 -0.06004,-0.07545 -0.165854,0.04039 -0.313021,0.136284 -0.46953,0.204427 0.0021,-0.05335 0.04884,-0.128214 0.006,-0.160036 -0.06147,-0.04564 -0.153654,-0.01561 -0.229614,-0.006 -1.26143,0.159459 0.879653,-0.02029 -0.913553,0.291362 -0.05535,0.0096 -0.140528,-0.03379 -0.142547,-0.08993 -0.0039,-0.107699 0.08577,-0.197734 0.128654,-0.296602 -0.239202,0.104914 -0.465836,0.245206 -0.717608,0.314744 -0.484056,0.133689 0.07466,-0.200943 -0.279654,-0.190338 -0.154141,0.0046 -0.286946,0.136821 -0.441138,0.139382 -0.0477,7.94e-4 -0.03826,-0.0874 -0.05739,-0.131104 -0.206748,0.09551 -0.413496,0.191016 -0.620241,0.286523 0.05306,-0.09078 0.19813,-0.174678 0.159186,-0.272357 -0.03174,-0.07961 -0.172222,0.01003 -0.255151,0.03166 -0.131204,0.03422 -0.25582,0.08999 -0.383727,0.134982 0.0043,-0.04943 0.06254,-0.15208 0.01304,-0.148304 -0.572162,0.04365 -0.34834,0.357061 -0.506003,0.08367 -0.163523,-0.318019 0.03949,-0.0085 -0.64443,0.175432 -0.03811,0.01024 -0.0114,-0.111683 -0.05058,-0.107042 -0.151384,0.01794 -0.280527,0.205666 -0.427056,0.163618 -0.09022,-0.02588 0.183767,-0.16836 0.133752,-0.247782 -0.04767,-0.0757 -0.177082,0.02558 -0.265625,0.03837 -0.08134,0.0061 -0.164949,0.03843 -0.244023,0.01839 -0.340069,-0.08615 0.211397,-0.144537 -0.220408,-0.166101 -0.536999,-0.02682 -0.04251,0.203732 -0.791033,0.257728 -0.05995,0.0043 0.01627,-0.119104 0.02442,-0.178659 -0.121796,-0.262471 0.0019,-0.09535 -0.481293,0.0517 -0.07876,0.02397 -0.165542,0.01347 -0.243935,0.03861 -0.150501,0.04826 -0.317939,0.282376 -0.438555,0.180242 -0.107087,-0.09068 0.262633,-0.182716 0.270161,-0.322834 0.0047,-0.0876 -0.170723,0.04048 -0.256083,0.06072 -1.138187,0.577518 -0.516297,0.42663 -0.518432,0.137907 -2.2e-4,-0.02964 -0.0479,-0.03997 -0.05714,-0.06813 -0.01132,-0.03448 0.03513,-0.105201 -0.0011,-0.108878 -0.370126,-0.0377 -0.1713,0.197043 -0.300739,0.01355 -0.166979,0.08541 -0.3301,0.178822 -0.500938,0.25622 -0.08692,0.03938 -0.272743,0.188751 -0.270643,0.09334 0.003,-0.136289 0.263536,-0.166661 0.275249,-0.302482 0.0076,-0.08866 -0.169153,0.09694 -0.255759,0.07649 -0.04326,-0.01021 0.0164,-0.08737 0.02461,-0.131056 -0.07261,0.01598 -0.145227,0.03198 -0.21784,0.04797 0.06022,-0.314424 0.04499,-0.04536 -0.414242,0.07144 -0.08441,0.02146 -0.08857,-0.31589 -0.251341,-0.07137 -0.469535,0.12958 -0.530833,0.346755 -0.247195,-0.106198 -0.01402,0.0056 -0.761981,0.31388 -0.837469,0.305733 -0.323721,-0.03495 0.339206,-0.274962 -0.09968,-0.227549 -0.581781,0.06285 -0.19137,0.189328 -0.498231,0.06518 -0.110128,0.03369 -0.220255,0.06738 -0.330383,0.101076 0.01511,-0.05593 0.101947,-0.155366 0.04536,-0.16778 -0.107066,-0.02349 -0.207828,0.07 -0.309983,0.109738 -0.115409,0.0449 -0.220494,0.122479 -0.342432,0.144061 -0.02795,0.0049 -0.02424,-0.05135 -0.03634,-0.07702 -0.158004,0.08233 -0.316008,0.16466 -0.474012,0.246991 0.0441,-0.07078 0.168397,-0.137171 0.132289,-0.212342 -0.03169,-0.06598 -0.144404,0.02408 -0.216413,0.03721 -0.08239,0.01503 -0.168172,0.01831 -0.246764,0.04723 -0.164287,0.06048 -0.304662,0.189779 -0.477221,0.219301 -0.04672,0.008 -0.0057,-0.100479 0.01905,-0.140918 0.07095,-0.116044 0.173054,-0.209883 0.25958,-0.314825 -0.107587,0.03982 -0.217672,0.07345 -0.322762,0.119459 -0.170696,0.07473 -0.317558,0.234707 -0.503738,0.242377 -0.0857,0.0035 0.207238,-0.234712 0.121843,-0.226647 -0.576646,0.05447 -0.44732,0.47846 -0.821967,0.132376 -0.368239,-0.02143 -0.145931,-0.03506 -0.654368,0.135149 -0.04773,0.0026 -0.03274,-0.129847 -0.07939,-0.119427 -0.218001,0.04869 -0.388313,0.269526 -0.611646,0.273768 -0.09668,0.0019 0.213929,-0.244611 0.119285,-0.264418 -0.170087,-0.0356 -0.324268,0.125058 -0.486402,0.187588 -0.388286,-0.157293 0.184285,0.03534 -0.590687,0.115038 -0.04265,0.0044 0.02103,-0.123528 -0.02172,-0.126764 -0.109781,-0.0083 -0.204536,0.09365 -0.314362,0.101311 -0.03243,0.0024 -0.04154,-0.05002 -0.06231,-0.07503 -0.08627,0.02757 -0.172548,0.05515 -0.258821,0.08272 0.400841,-0.509515 0.05995,-0.01939 -0.363326,0.09109 -0.09843,0.02569 0.296743,-0.193649 0.201448,-0.229248 -0.13667,-0.05106 -0.78483,0.586869 -0.826018,0.478102 -0.07145,-0.188688 0.297471,-0.272664 0.446206,-0.408996 -0.141054,0.08602 -0.282109,0.17204 -0.423164,0.258062 -0.02252,-0.0024 -0.04709,-0.01704 -0.06752,-0.0073 -0.114223,0.05453 -0.20135,0.171892 -0.325784,0.195059 -0.06337,0.0118 0.178475,-0.164547 0.11462,-0.15575 -0.390726,0.05384 -0.374015,0.365822 -0.362566,0.08838 -0.07684,0.02342 -0.153686,0.04684 -0.230529,0.07026 -0.0096,-0.02698 -0.0024,-0.07003 -0.0289,-0.08095 -0.04743,-0.01955 -0.10722,0.0271 -0.153805,0.0056 -0.02757,-0.01273 0.0057,-0.09263 -0.02429,-0.08778 -0.20184,0.03267 -0.358788,0.215839 -0.571889,0.221819 -0.08023,0.02019 -0.164682,0.02788 -0.240702,0.06053 -0.184703,0.07931 -0.45784,0.458197 -0.537398,0.273597 -0.0855,-0.19839 0.369319,-0.261853 0.45746,-0.459087 0.04019,-0.08995 -0.187794,0.06565 -0.285856,0.07509 -0.152559,0.01468 -0.156591,-0.03419 -0.23105,-0.130416 -0.101034,0.0404 -0.582287,0.286862 -0.787059,0.228502 -0.04811,-0.0137 -0.02606,-0.116377 -0.07405,-0.130529 -0.264014,-0.07787 -0.580321,0.203619 -0.852733,0.102258 -0.284734,-0.180824 0.08526,0.01175 -0.527019,0.08813 -0.07324,0.0091 0.01556,-0.284809 -0.172389,-0.138968 -0.551497,0.159169 -0.362593,0.36475 -0.534704,0.121114 0.01381,-0.05673 0.06158,-0.115394 0.04141,-0.170184 -0.06912,-0.187777 -0.298752,0.08177 -0.596075,0.133075 -0.0392,0.0068 -0.02973,-0.0841 -0.06661,-0.09902 -0.203788,-0.08245 -0.548654,0.174325 -0.64456,0.221545 0,0 1.35636,-0.985456 1.35636,-0.985456 z"
         id="path3763"
         style="fill:#000000;stroke-width:0.26458332;stroke-miterlimit:4;stroke-dasharray:0.79374994, 0.26458331;stroke-dashoffset:0" />
      <path
         inkscape:connector-curvature="0"
         d="m 96.791845,79.003466 c 0.138065,0.330213 -0.143706,-0.249478 0.336915,0.05573 0.05963,0.03787 -0.110553,0.192733 -0.04154,0.207823 0.14486,0.03167 0.280588,-0.102394 0.427366,-0.123471 0.06629,-0.0095 0.132046,0.02244 0.198067,0.03365 0.145952,-0.0473 0.291902,-0.09459 0.437851,-0.141891 -0.0083,0.06026 -0.0791,0.153157 -0.0249,0.180782 0.08455,0.0431 0.186407,-0.03599 0.28017,-0.05067 0.07637,-0.01196 0.152765,-0.03086 0.230047,-0.02923 0.03762,7.93e-4 0.07247,0.02111 0.106889,0.03633 0.205073,0.09063 -0.03319,0.09481 0.382267,-0.06631 0.139235,-0.0848 0.260435,-0.211458 0.417701,-0.254415 0.132493,-0.03619 -0.380124,0.375123 -0.251802,0.326154 0.16401,-0.06259 0.289582,-0.201165 0.447879,-0.277056 0.01691,-0.0081 0.03072,0.03508 0.02209,0.05174 -0.03899,0.07536 -0.102531,0.135215 -0.153797,0.202821 -1.09833,0.665451 0.637342,-0.523668 0.645952,-0.288067 0.004,0.122809 -0.314255,0.322331 0.10187,0.143168 0.18225,-0.07846 0.33134,-0.295251 0.52859,-0.273743 0.13169,0.01437 -0.17112,0.202261 -0.25668,0.303392 0.43156,-0.157051 0.16745,-0.08 0.50775,-0.150161 0.0654,-0.01349 0.13163,-0.06357 0.19541,-0.04386 0.0322,0.0099 -0.0464,0.105781 -0.0132,0.100169 0.56817,-0.09603 0.17371,-0.217662 0.43166,-0.122412 0.0161,0.02103 0.0235,0.05388 0.0483,0.06312 0.11683,0.04348 0.31043,-0.0703 0.38821,-0.08979 0.0472,-0.01183 0.0971,-0.0071 0.14572,-0.01 0.0493,-0.003 0.15426,-0.05659 0.14796,-0.0076 -0.0125,0.09734 -0.11813,0.156742 -0.1772,0.235114 0.16069,-0.0817 0.32138,-0.163409 0.48207,-0.245112 -0.0243,0.05104 -0.12497,0.13095 -0.073,0.153127 0.0781,0.03328 0.16103,-0.109164 0.24121,-0.08139 0.0496,0.01717 -0.0687,0.08764 -0.072,0.14001 -0.009,0.144796 0.28642,-0.06093 0.4174,-0.123307 0.92406,-0.448738 -0.0968,-0.0071 0.14782,0.04264 0.10768,0.02188 0.19229,-0.153419 0.30065,-0.135205 0.0654,0.01101 -0.15597,0.122918 -0.10708,0.167743 0.055,0.0504 0.14151,-0.04719 0.21201,-0.07155 0.0867,-0.02997 0.17311,-0.06095 0.25966,-0.09143 0.10915,-0.04594 0.20977,-0.124467 0.32744,-0.137829 0.0334,-0.0038 -8e-4,0.06719 -10e-4,0.100785 0.0381,0.0038 0.0771,0.02053 0.11421,0.0113 0.0934,-0.02326 0.25774,-0.202166 0.26837,-0.106508 0.0246,0.220959 -0.7305,0.492641 0.10359,0.127407 -0.0197,0.0473 -0.10089,0.112337 -0.059,0.141891 0.0555,0.0392 0.13376,-0.0249 0.19931,-0.04283 0.1412,-0.03864 0.57085,-0.214553 0.71102,-0.185835 0.031,0.0063 0.032,0.05457 0.048,0.08186 0.11881,0.04862 0.32137,-0.03095 0.43472,0.0011 0.0257,0.0072 0.0221,0.06864 0.0483,0.06385 0.10853,-0.01982 0.19606,-0.111483 0.30509,-0.128342 0.0264,-0.0041 0.007,0.05296 0.0111,0.07944 0.062,-0.01757 0.15878,-0.111151 0.18599,-0.05273 0.13065,0.280562 -1.06487,0.316955 0.34004,-0.07441 0.11661,-0.03248 -0.3134,0.329637 -0.19456,0.306618 0.16072,-0.03113 0.29165,-0.148807 0.43746,-0.22321 -0.0101,0.04011 -0.0644,0.09679 -0.0304,0.120332 0.0465,0.03217 0.1165,-0.0013 0.16768,-0.02529 0.1959,-0.09188 0.35869,-0.255177 0.56557,-0.318585 0.34105,-0.104534 -0.38607,0.306885 -0.15901,0.305157 0.10753,-7.93e-4 0.19807,-0.08377 0.2971,-0.125661 -0.0935,0.387885 0.44056,-0.150979 0.51774,-0.0369 0.26435,0.390721 -0.28581,0.02339 -0.0255,0.184018 0.14587,-0.07712 0.27262,-0.232624 0.43762,-0.231362 0.20674,0.0016 -0.51988,0.396782 -0.35857,0.43271 0.12046,0.02683 0.21805,-0.117306 0.33372,-0.16029 0.0378,-0.01402 0.0804,-0.0057 0.12056,-0.0085 0.0838,-0.03272 0.1676,-0.06543 0.2514,-0.09815 0.96021,-0.482134 0.0678,-0.08791 0.1245,0.07858 0.21261,0.624232 0.27056,-0.491032 0.47074,-0.139927 0.0296,0.0519 -0.0598,0.103574 -0.0859,0.157332 -0.0213,0.04399 -0.0374,0.09032 -0.0562,0.135487 0.16256,0.08294 0.33473,-0.250213 0.46924,-0.155109 0.0767,0.05424 -0.2657,0.204811 -0.17338,0.222216 0.27881,0.05256 0.46008,-0.327917 0.57017,-0.137716 0.0248,0.04285 -0.0222,0.0965 -0.0333,0.144756 0.44422,-0.06281 0.0994,-0.08414 0.25184,0.05483 0.0251,0.02289 0.0638,0.04872 0.0954,0.0361 0.19151,-0.07658 0.34933,-0.228208 0.54538,-0.292298 0.0496,-0.01622 -0.0789,0.08618 -0.0738,0.138138 0.003,0.03078 0.0598,0.01572 0.0897,0.02358 0.10554,-0.04702 0.2079,-0.10196 0.31663,-0.141057 0.27691,-0.09957 0.12092,0.0033 0.0339,0.141099 -0.0278,0.04405 -0.0708,0.08661 -0.072,0.138692 -5.3e-4,0.02585 0.0441,0.04772 0.0679,0.0376 0.17613,-0.07484 0.33431,-0.186362 0.50147,-0.279543 -0.58645,0.55948 -0.40901,0.320271 -0.0333,0.184942 0.36613,-0.131866 -0.0855,0.08733 0.20411,0.02119 0.0882,-0.02016 0.16712,-0.06974 0.25247,-0.09984 0.0616,-0.02172 0.12525,-0.03697 0.18787,-0.05545 -0.0723,0.354091 -0.0398,0.137136 0.4182,-0.04505 0.0229,-0.0091 0.0688,0.01061 0.0651,0.03495 -0.009,0.05711 -0.14806,0.130207 -0.0926,0.14646 0.087,0.02551 0.16879,-0.06626 0.25318,-0.09938 0.0751,-0.02606 0.24568,-0.15494 0.22513,-0.0782 -0.0347,0.129683 -0.30829,0.156663 -0.28135,0.288185 0.0229,0.111929 0.20104,-0.112742 0.31076,-0.144619 0.0215,-0.0062 0.0329,0.04123 0.0551,0.03833 0.36138,-0.04727 0.10055,-0.109948 0.29964,-0.04869 0.0493,-0.0079 0.14641,-0.07367 0.14775,-0.02381 0.002,0.07806 -0.21124,0.146532 -0.14342,0.185225 0.0853,0.04865 0.17529,-0.124667 0.27258,-0.111535 0.0515,0.007 -0.12269,0.144576 -0.0711,0.138739 0.41697,-0.04715 0.3032,-0.318135 0.37384,-0.10414 0.0174,0.01376 0.0304,0.0371 0.0521,0.0413 0.0483,0.0093 0.38876,-0.04091 0.43066,-0.05916 0.49315,-0.214712 0.27381,-0.304199 0.49308,-0.190494 0.018,0.01601 0.0456,0.0254 0.0539,0.04799 0.0101,0.02763 -0.0268,0.06947 -0.004,0.08817 0.0288,0.02376 0.0749,-0.0028 0.11211,7.94e-4 0.0285,0.0028 0.0556,0.02278 0.0838,0.01826 0.23073,-0.03694 0.21569,-0.151945 0.19403,0.02896 0.49975,-0.253074 0.28219,-0.299812 0.49156,-0.156247 0.027,0.0185 0.051,0.05833 0.0831,0.05222 0.1164,-0.02217 0.22348,-0.181862 0.33047,-0.130951 0.0796,0.03788 -0.11285,0.136973 -0.15437,0.214742 -0.0195,0.03659 -0.0169,0.08123 -0.0253,0.121846 0.23945,-0.01093 0.40887,-0.23817 0.63742,-0.269222 0.048,-0.0065 -0.0739,0.0914 -0.0531,0.13511 0.0177,0.03736 0.0822,0.01677 0.12339,0.01294 0.13589,-0.01267 0.26783,-0.05305 0.40264,-0.07431 0.009,0.02769 -0.002,0.08339 0.0275,0.08309 0.092,-0.0011 0.17641,-0.05306 0.26228,-0.08614 0.11483,-0.04425 0.21678,-0.157773 0.33924,-0.145642 0.13298,0.01318 -0.34508,0.316846 -0.21337,0.339407 0.11218,0.01921 0.20888,-0.09046 0.31332,-0.135689 1.00934,-0.468744 0.0383,-0.08255 0.19395,0.03686 0.076,0.05831 0.17683,-0.07383 0.26567,-0.109678 0.0793,-0.03202 0.15741,-0.12001 0.23891,-0.09393 0.0526,0.01685 -0.0537,0.09662 -0.0819,0.144177 -0.0307,0.05188 -0.0631,0.102727 -0.0947,0.15409 0.0394,-0.01879 0.44757,-0.227356 0.55391,-0.237852 0.021,-0.0021 0.0164,0.04212 0.0344,0.0532 0.0233,0.01434 0.0536,0.01109 0.0802,0.01741 0.16239,0.03854 0.042,0.03545 0.29989,-0.05288 0.0841,0.08942 0.52068,-0.291124 0.44559,-0.153173 -0.0996,0.182939 -0.43354,0.210207 -0.46632,0.415888 -0.0142,0.08916 0.74324,-0.495995 0.79457,-0.442515 0.0895,0.0932 -0.17813,0.187153 -0.2672,0.280728 0.1626,0.0719 0.33844,-0.274847 0.51382,-0.214217 0.0473,0.01635 -0.11648,0.137549 -0.0665,0.134567 0.11545,-0.0069 0.20801,-0.101195 0.31318,-0.149299 0.32202,-0.147286 0.20605,-0.111678 0.46497,-0.163685 -0.031,0.05143 -0.099,0.09453 -0.0931,0.154308 0.004,0.03609 0.0746,0.01601 0.10873,0.0037 0.13152,-0.04741 0.24619,-0.223049 0.37905,-0.17953 0.0969,0.03173 -0.28773,0.235669 -0.18603,0.242755 0.32942,0.02297 0.69816,-0.540507 0.26671,0.02738 0.26545,-0.10051 0.24251,-0.132961 0.45829,-0.120711 0.0368,0.0021 0.0741,0.02662 0.1094,0.01603 0.0961,-0.0288 0.17571,-0.09962 0.27124,-0.130143 0.0238,-0.0076 0.0471,0.02101 0.0721,0.02043 0.0458,-0.0011 0.0901,-0.01683 0.13515,-0.02524 0.62984,-0.317011 0.2029,-0.152112 0.13275,0.05116 -0.012,0.03491 0.0898,-0.03894 0.11049,-0.0083 0.0221,0.03273 -0.0715,0.08614 -0.041,0.111207 0.1192,0.09787 0.34389,-0.280863 0.002,0.1627 0.24948,-0.08009 0.45243,-0.270047 0.70034,-0.353063 0.0193,-0.0065 0.0229,0.03375 0.0344,0.05062 0,0 -1.1127,0.80935 -1.1127,0.80935 v 0 c -0.0932,0.0429 -0.1853,0.169169 -0.27957,0.128699 -0.21254,-0.09125 0.63913,-0.371179 -0.0761,-0.09965 -0.11297,0.05606 -0.21344,0.155464 -0.33891,0.168164 -0.0552,0.0056 0.0523,-0.09833 0.0858,-0.142544 0.0564,-0.07444 0.18682,-0.118909 0.18288,-0.212204 -0.003,-0.067 -0.12679,0.04389 -0.18892,0.06912 -0.0794,0.03224 -0.15434,0.0757 -0.23552,0.103182 -0.0395,0.01336 -0.0824,0.01225 -0.12361,0.01839 -0.18603,-0.03119 -0.26014,0.08536 -0.434,0.07978 -0.0302,-0.0011 -0.0551,-0.02529 -0.0839,-0.0346 -0.23086,-0.07478 -0.16904,0.0032 -0.52222,0.167172 0.0282,-0.05802 0.14302,-0.146283 0.0848,-0.174049 -0.0848,-0.04043 -0.18339,0.0463 -0.2683,0.08657 -0.20037,0.09505 -0.37158,0.255683 -0.58444,0.317926 -0.0698,0.02043 0.0771,-0.123566 0.12018,-0.182171 0.0499,-0.06793 0.19728,-0.122063 0.15866,-0.197019 -0.0357,-0.06921 -0.14702,0.0513 -0.22052,0.07695 -0.0295,-0.0069 -0.0725,0.0051 -0.0884,-0.02061 -0.0171,-0.02761 0.0482,-0.101081 0.0161,-0.09611 -0.1072,0.01659 -0.18737,0.120251 -0.29419,0.139166 -0.0295,0.0052 0.0387,-0.101772 0.0116,-0.08913 -0.5195,0.241922 -0.83722,0.622255 -0.30697,0.06882 -0.17026,0.09106 -0.3508,0.208097 -0.54401,0.25609 -0.10523,0.02614 -0.15418,-0.0075 -0.26052,0.0047 -0.0592,0.0068 -0.11844,0.05858 -0.17449,0.03845 -0.0303,-0.01087 0.0116,-0.06325 0.0174,-0.09488 -0.0455,-0.139697 0.0206,-0.01 -0.14127,-0.06237 -0.0195,-0.0063 -0.0101,-0.05519 -0.0306,-0.05343 -0.11506,0.0099 -0.27156,0.164647 -0.35277,0.01352 -0.0378,0.0087 -0.2269,0.06533 -0.2884,0.03955 -0.0203,-0.0085 -0.005,-0.0616 -0.0265,-0.06036 -0.23386,0.01315 -0.18363,0.159107 -0.34339,-0.01162 -0.0822,0.02905 -0.16031,0.07425 -0.2465,0.08714 -0.0259,0.0039 -0.0421,-0.03345 -0.0674,-0.04021 -0.0382,-0.01019 -0.0789,-0.0045 -0.11812,-0.0094 -0.0377,-0.0047 -0.0754,-0.0275 -0.11245,-0.01913 -0.11051,0.02495 -0.56242,0.225504 -0.64434,0.260702 -0.0148,-0.02535 -0.0416,-0.04683 -0.0446,-0.07607 -0.004,-0.04299 0.0674,-0.126248 0.0242,-0.127346 -0.10973,-0.0028 -0.24365,0.210087 -0.3066,0.120163 -0.0632,-0.09035 0.32386,-0.240456 0.2142,-0.252153 -0.28287,-0.03017 -0.72324,0.561657 -0.22867,-0.02776 -1.55439,0.795497 0.0484,0.05147 -0.24424,-0.0286 -0.17817,-0.04875 -0.57916,0.395351 -0.73854,0.314857 -0.0648,-0.03275 0.16386,-0.140266 0.1095,-0.188473 -0.0615,-0.05456 -0.15602,0.05203 -0.23402,0.07805 -0.0964,0.04155 -0.19597,0.173066 -0.28908,0.124661 -0.0734,-0.03815 0.11857,-0.120219 0.15274,-0.195541 0.009,-0.0195 -0.0208,-0.05183 -0.042,-0.04867 -0.1557,0.0232 -0.43745,0.210941 -0.5652,0.243175 -0.0229,0.0058 -0.0239,-0.04076 -0.0358,-0.06113 0.0201,-0.04347 0.0307,-0.09279 0.0603,-0.130403 0.0747,-0.09471 0.36656,-0.290121 0.24923,-0.262247 -0.22026,0.05232 -0.38882,0.232135 -0.58656,0.342382 -0.136,0.07583 -0.2603,0.193148 -0.41438,0.215685 -0.0697,0.01019 0.16199,-0.115234 0.12148,-0.172841 -0.0399,-0.0567 -0.13179,0.04297 -0.19769,0.06446 0.003,-0.02947 -7.9e-4,-0.06032 0.008,-0.08842 0.0154,-0.04656 0.11371,-0.131551 0.0647,-0.132184 -0.10816,-0.0013 -0.19566,0.09325 -0.29769,0.129181 -0.0533,0.01878 -0.11185,0.01831 -0.1661,0.03417 -0.29203,0.08543 -0.30375,0.174078 -0.0165,-0.152601 -2.6e-4,-0.02807 0.0172,-0.0629 -0.001,-0.08421 -0.099,-0.115499 -0.53778,0.155416 -0.55409,0.159036 -0.0241,0.0053 -0.0104,-0.04831 -0.0156,-0.07247 -0.10874,0.05055 -0.21748,0.101103 -0.32623,0.151654 0.0607,-0.07228 0.24145,-0.143476 0.18208,-0.216852 -0.0606,-0.07485 -0.17525,0.0802 -0.26549,0.113752 -0.73653,0.273849 0.50349,-0.674267 -0.64228,0.125759 0.45925,-0.562578 -0.1863,0.196384 -0.41147,0.04931 -0.26679,-0.174262 1.36294,-0.453025 0.34745,-0.415713 -0.23216,0.0085 -0.40015,0.236151 -0.60022,0.354227 0.0351,-0.05387 0.15675,-0.123093 0.10527,-0.161603 -0.0625,-0.04677 -0.14645,0.0553 -0.22225,0.0741 -0.0466,0.01156 -0.0959,0.0082 -0.14323,0.01654 -0.21917,0.03846 -0.35888,0.113496 -0.11878,-0.173905 -0.3161,-0.165685 -0.36672,0.277696 -0.6553,0.183401 -0.0932,-0.03046 0.27538,-0.21632 0.17885,-0.233569 -0.45032,-0.08047 -0.45964,0.425154 -0.42418,0.05492 -0.004,-0.0108 -0.0679,-0.179933 -0.0897,-0.182285 -0.082,-0.0089 -0.15872,0.05021 -0.24099,0.05625 -0.0343,0.0026 -0.0642,-0.02702 -0.0984,-0.03134 -0.13893,-0.0176 -0.2224,0.03071 -0.36207,0.07306 -0.043,-0.238414 0.026,-0.01736 -0.38853,0.07795 -0.0251,0.0058 -0.0285,-0.0517 -0.0178,-0.07511 0.0312,-0.06832 0.20867,-0.192087 0.13445,-0.180724 -0.52288,0.08006 -0.34312,0.391843 -0.45624,0.162441 -0.0252,-0.0098 -0.0639,-0.0051 -0.0758,-0.02946 -0.0136,-0.02782 0.0478,-0.09 0.0169,-0.09132 -0.0803,-0.0034 -0.15114,0.05455 -0.2265,0.08239 -0.0808,0.02983 -0.17501,0.144854 -0.2419,0.09063 -0.15416,-0.124991 0.61341,-0.368898 -0.12565,-0.08238 -0.25128,0.05275 -0.1078,0.0127 -0.42364,0.142311 -0.0319,0.0082 -0.11442,0.01299 -0.0976,-0.01529 0.0685,-0.114842 0.22979,-0.164055 0.27875,-0.288488 0.0653,-0.165965 -0.764,0.471014 -0.49829,0.194897 -0.0177,-0.01717 -0.044,-0.0286 -0.0532,-0.05152 -0.0113,-0.02824 0.0259,-0.08492 -0.004,-0.09118 -0.0894,-0.01879 -0.48692,0.174014 -0.50373,0.178049 -0.0293,0.007 -0.053,-0.0407 -0.0829,-0.03631 -0.0882,0.01299 -0.16889,0.05721 -0.25333,0.08581 0.17294,-0.398293 -0.0472,0.185973 -0.39659,0.11234 -0.13101,-0.02761 0.41006,-0.254739 0.28029,-0.287737 -0.16643,-0.04233 -0.29738,0.173082 -0.45398,0.243567 -0.0531,0.02389 -0.19448,0.09067 -0.17061,0.03756 0.0552,-0.122856 0.18884,-0.192127 0.28325,-0.288189 -0.0898,-0.05614 -0.0412,-0.03077 -0.14668,-0.0743 -0.024,-0.01389 -0.0389,-0.05978 -0.0654,-0.05147 -0.14984,0.04703 -0.27808,0.14741 -0.42414,0.205108 -0.0711,0.02808 -0.30614,0.05474 -0.3838,0.06502 -0.0424,-0.0081 -0.0998,0.009 -0.12722,-0.02434 -0.18603,-0.225748 0.89315,-0.421439 -0.45302,0.106196 -0.0558,0.02188 -0.20615,0.07529 -0.17851,0.02209 0.0773,-0.148881 0.39487,-0.195977 0.35325,-0.358498 -0.0363,-0.141919 -0.26434,0.126408 -0.39651,0.189609 0.0328,-0.306321 0.0324,-0.01318 -0.44983,0.126918 -0.26237,0.07621 0.29579,-0.265716 0.0462,-0.214535 -0.35682,0.07318 -0.48205,0.359397 -0.26845,-5.29e-4 -0.13916,0.07085 -0.27832,0.1417 -0.41747,0.21255 0.0215,-0.04371 0.11269,-0.138197 0.0645,-0.131133 -0.1284,0.01881 -0.23258,0.115216 -0.34888,0.172821 0.006,-0.0339 0.0518,-0.09471 0.0181,-0.101711 -0.31185,-0.06478 -0.13651,0.165992 -0.23994,0.0061 -0.25563,-0.06955 0.16112,0.02778 -0.28585,0.02773 -0.0238,-3e-6 -0.0252,-0.05165 -0.049,-0.05211 -0.16347,-0.0031 -0.29276,0.16787 -0.39471,-0.01236 -0.007,-0.03058 0.001,-0.06899 -0.0202,-0.09175 -0.12601,-0.133337 -0.50626,0.200808 -0.60742,0.245427 -0.52568,0.231873 0.39637,-0.679661 -0.57113,0.124191 0.0737,-0.0864 0.24977,-0.149392 0.22095,-0.259207 -0.0238,-0.09059 -0.17418,0.06919 -0.26308,0.09865 -0.502602,0.16655 -0.0216,0.03372 -0.11772,-0.102796 -0.0492,-0.06989 -0.214191,0.109958 -0.254278,-0.03315 -0.153011,0.07303 -0.290306,0.20243 -0.459033,0.219096 -0.06964,0.0069 0.07908,-0.117478 0.101459,-0.183777 0.01095,-0.03249 0.02883,-0.109834 -0.0047,-0.102762 -0.143782,0.03031 -0.264655,0.127865 -0.398809,0.187817 -0.09503,0.04247 -0.232793,0.207254 -0.288554,0.119359 -0.05731,-0.09034 0.140425,-0.161451 0.210637,-0.242178 -0.0881,0.04082 -0.178237,0.0775 -0.264292,0.122468 -0.108956,0.05694 -0.207846,0.133106 -0.320215,0.182964 -0.02106,0.0093 -0.0644,0.01214 -0.06833,-0.01058 -0.0065,-0.03781 0.08656,-0.10913 0.04847,-0.104415 -0.174019,0.02156 -0.297849,0.210121 -0.484468,0.204964 0.082,-0.09605 0.348592,-0.2145 0.245997,-0.288149 -0.118232,-0.08488 -0.255672,0.150029 -0.398346,0.178781 -0.03297,0.0066 -0.01484,-0.09565 -0.04779,-0.08887 -0.161096,0.03316 -0.293867,0.156578 -0.454424,0.192249 -0.04489,0.01 -0.08142,-0.04277 -0.122129,-0.06415 -0.108027,0.02426 -0.216054,0.04851 -0.32408,0.07277 0.01177,-0.0673 0.102637,-0.190064 0.03534,-0.201906 -0.14692,-0.02585 -0.284202,0.0909 -0.427339,0.132918 -0.137588,0.04039 -0.271399,0.109824 -0.414724,0.114287 -0.04899,0.0016 -0.06275,-0.08379 -0.109672,-0.09796 -0.126833,-0.03832 -0.269507,0.0279 -0.397309,-0.01185 0,0 1.305883,-0.94878 1.305883,-0.94878 z"
         id="path3767"
         style="fill:#000000;stroke-width:0.26458332;stroke-miterlimit:4;stroke-dasharray:0.79374994, 0.26458331;stroke-dashoffset:0" />
      <path
         inkscape:connector-curvature="0"
         id="path3769"
         d="m 85.761493,40.625291 c 9.724538,39.327283 9.724538,39.327283 9.724538,39.327283"
         style="fill:none;stroke:#000000;stroke-width:0.26458332px;stroke-linecap:butt;stroke-linejoin:miter;stroke-opacity:1" />
      <path
         inkscape:connector-curvature="0"
         d="m 86.970137,41.515494 c -0.332895,0.31328 0.23952,-0.291164 0.03922,0.486552 -0.02486,0.09649 -0.252443,-0.08146 -0.248581,0.01956 0.0081,0.212056 0.201606,0.350073 0.270186,0.545235 0.03095,0.08815 0.01469,0.190914 0.02205,0.286366 0.0981,0.184305 0.196187,0.368609 0.294287,0.552908 -0.07093,0.01087 -0.197944,-0.05263 -0.212818,0.03256 -0.02321,0.132883 0.09757,0.244436 0.142755,0.368659 0.03681,0.10117 0.08151,0.199815 0.103162,0.307289 0.01058,0.05232 -0.0019,0.108032 -0.0087,0.161275 -0.0405,0.317166 -0.117736,-0.01075 0.19157,0.504049 0.13863,0.161119 0.319297,0.281788 0.415908,0.48335 0.08139,0.169807 -0.541518,-0.386662 -0.446887,-0.227356 0.120953,0.20361 0.316478,0.325911 0.450794,0.516692 0.01434,0.02039 -0.03048,0.05548 -0.05202,0.04972 -0.09741,-0.026 -0.184701,-0.09168 -0.277052,-0.137522 -1.089614,-1.272257 0.788411,0.687314 0.523549,0.786516 -0.138209,0.05104 -0.461545,-0.315132 -0.13155,0.193922 0.144518,0.222953 0.435997,0.348793 0.471584,0.629532 0.02374,0.187432 -0.281685,-0.16169 -0.422528,-0.242532 0.309585,0.53859 0.141764,0.201914 0.32494,0.646503 0.03521,0.08544 0.112212,0.158469 0.109238,0.253971 -0.0014,0.0482 -0.134209,-0.02497 -0.117738,0.01887 0.281865,0.750114 0.299958,0.159565 0.27029,0.551566 -0.01898,0.03005 -0.05402,0.05245 -0.05697,0.09018 -0.01382,0.177669 0.174246,0.403229 0.220035,0.503568 0.02778,0.06089 0.0376,0.131638 0.05568,0.197803 0.01841,0.06706 0.111177,0.192351 0.05364,0.201792 -0.114316,0.01878 -0.213888,-0.105289 -0.320834,-0.157926 0.141638,0.19194 0.283286,0.383875 0.424928,0.575811 -0.06534,-0.01469 -0.186687,-0.124294 -0.196054,-0.0442 -0.01402,0.120329 0.172922,0.182233 0.16578,0.3034 -0.0043,0.07495 -0.120397,-0.06254 -0.180858,-0.04769 -0.167126,0.0412 0.156306,0.3735 0.266969,0.531513 0.790563,1.111566 -0.02139,-0.136491 -0.0034,0.220214 0.0079,0.157013 0.232675,0.209061 0.24496,0.365657 0.0074,0.09451 -0.186998,-0.170138 -0.223016,-0.08593 -0.04049,0.09473 0.09663,0.178202 0.145727,0.266666 0.0604,0.108792 0.121858,0.216803 0.182792,0.325195 0.08537,0.133915 0.205123,0.243961 0.256089,0.401732 0.01448,0.04478 -0.07653,0.02379 -0.114727,0.03596 0.0073,0.05409 1.45e-4,0.114223 0.02192,0.162122 0.05482,0.120545 0.307928,0.281506 0.20256,0.331651 -0.243374,0.115895 -0.781525,-0.827634 -0.113129,0.19046 -0.0597,-0.0097 -0.158228,-0.09789 -0.179038,-0.02902 -0.02762,0.09128 0.06896,0.175745 0.109262,0.259748 0.08682,0.18094 0.417242,0.709901 0.427278,0.914376 0.0022,0.04519 -0.05222,0.06447 -0.07834,0.09671 -0.01905,0.182312 0.132901,0.43294 0.130997,0.601562 -3.57e-4,0.03821 -0.0712,0.056 -0.05779,0.09044 0.05552,0.142735 0.186212,0.229813 0.238519,0.37434 0.01268,0.03499 -0.05799,0.0293 -0.08681,0.04478 0.03881,0.07923 0.174494,0.178384 0.116444,0.237659 -0.278779,0.284634 -0.683781,-1.35511 0.187923,0.44266 0.07234,0.149221 -0.46958,-0.311243 -0.407294,-0.155434 0.08424,0.210718 0.257664,0.348172 0.386491,0.522236 -0.04861,8.96e-4 -0.129478,-0.05318 -0.145863,0.0026 -0.02238,0.07622 0.03692,0.160622 0.07973,0.222507 0.163907,0.236857 0.398822,0.401464 0.533744,0.664053 0.222428,0.432889 -0.465855,-0.420165 -0.394821,-0.106817 0.03362,0.148404 0.15536,0.242861 0.233045,0.364285 -0.468814,0.01443 0.305429,0.553285 0.199392,0.702285 -0.363174,0.510332 -0.113504,-0.386568 -0.216674,0.03292 0.13193,0.173142 0.347033,0.290798 0.395794,0.519437 0.06107,0.286484 -0.608622,-0.571896 -0.60034,-0.335516 0.0062,0.176521 0.199511,0.258066 0.283498,0.402094 0.02742,0.04707 0.03092,0.10906 0.04632,0.163567 0.06264,0.103767 0.125268,0.207522 0.187909,0.311282 0.839475,1.149182 0.12043,0.06118 -0.05134,0.201281 -0.644021,0.525308 0.639782,0.192202 0.302064,0.599118 -0.04992,0.06016 -0.13578,-0.04432 -0.204753,-0.06049 -0.05642,-0.01316 -0.113916,-0.01825 -0.170917,-0.02751 -0.04471,0.255528 0.385898,0.370169 0.318843,0.591417 -0.03825,0.126155 -0.313351,-0.291536 -0.305027,-0.157422 0.02514,0.40503 0.512247,0.514719 0.329799,0.737432 -0.0411,0.05018 -0.116314,0.005 -0.174473,0.0076 0.206443,0.591018 0.125764,0.106278 0.01436,0.368575 -0.01835,0.04319 -0.03591,0.106278 -0.01197,0.145299 0.145201,0.236454 0.365356,0.398515 0.497757,0.645869 0.0335,0.06257 -0.121844,-0.07717 -0.179281,-0.05087 -0.03403,0.01555 3.45e-4,0.08852 5.16e-4,0.132783 0.08548,0.128518 0.179001,0.249715 0.256466,0.385585 0.197279,0.346033 0.03304,0.168439 -0.14988,0.09915 -0.05846,-0.02211 -0.119867,-0.06581 -0.179362,-0.04819 -0.0295,0.0088 -0.04076,0.07867 -0.02204,0.107833 0.138547,0.215831 0.313279,0.39325 0.469919,0.58988 -0.813587,-0.603668 -0.488031,-0.44693 -0.220097,0.02248 0.261088,0.457443 -0.125156,-0.08587 0.03803,0.290105 0.04972,0.114505 0.130015,0.205262 0.190152,0.312135 0.0434,0.07713 0.08008,0.159504 0.120105,0.239251 -0.423999,0.03123 -0.1678,-0.0043 0.178365,0.561616 0.0173,0.02831 0.0089,0.09907 -0.01988,0.102969 -0.06757,0.0087 -0.192866,-0.156498 -0.194447,-0.07379 -0.0025,0.129764 0.126572,0.20886 0.189846,0.313289 0.05243,0.0942 0.250642,0.282328 0.157268,0.282345 -0.157788,6.7e-5 -0.271646,-0.368271 -0.41277,-0.282285 -0.120108,0.07315 0.189156,0.236235 0.258723,0.37615 0.01358,0.02743 -0.0368,0.06078 -0.02675,0.09039 0.163601,0.48222 0.155414,0.09831 0.146432,0.396317 0.02397,0.06525 0.128176,0.175166 0.07198,0.195495 -0.08801,0.03169 -0.23062,-0.237819 -0.253917,-0.129692 -0.02928,0.135977 0.19486,0.196207 0.209547,0.335611 0.0078,0.07381 -0.201462,-0.116092 -0.179142,-0.04692 0.180376,0.559138 0.453414,0.3014 0.231957,0.478378 -0.01034,0.02916 -0.03288,0.05578 -0.03104,0.08735 0.0041,0.07023 0.164709,0.522439 0.198171,0.573618 0.393794,0.602396 0.428655,0.265924 0.366267,0.611271 -0.01269,0.03082 -0.01493,0.07247 -0.03808,0.09231 -0.02833,0.02421 -0.08698,-0.01133 -0.101316,0.02714 -0.01822,0.04863 0.02598,0.102532 0.03314,0.155324 0.0059,0.04045 -0.0094,0.08534 0.0047,0.122648 0.11213,0.305379 0.238117,0.241968 0.02609,0.279047 0.43935,0.597307 0.426233,0.279134 0.326927,0.621861 -0.01281,0.0442 -0.05066,0.09215 -0.03397,0.134258 0.06053,0.152748 0.274459,0.241653 0.2492,0.408469 -0.01881,0.124109 -0.189833,-0.1053 -0.290761,-0.133901 -0.04748,-0.01346 -0.09732,0.0068 -0.146027,0.01022 0.08521,0.327073 0.394781,0.477156 0.499552,0.781702 0.02198,0.06397 -0.126245,-0.06833 -0.169534,-0.02337 -0.03702,0.03833 0.0059,0.119885 0.0228,0.175426 0.05571,0.183221 0.141702,0.350712 0.206852,0.529257 -0.02868,0.02271 -0.09532,0.02814 -0.08592,0.06881 0.02927,0.126814 0.113893,0.224289 0.177586,0.330778 0.08521,0.14239 0.245063,0.241315 0.268547,0.415155 0.0255,0.188775 -0.464692,-0.359793 -0.450247,-0.169298 0.01234,0.162245 0.166244,0.255332 0.249365,0.382998 0.839221,1.222083 0.10543,0.02237 0.01716,0.281861 -0.04314,0.1267 0.137611,0.217173 0.205336,0.326744 0.06053,0.0978 0.184132,0.173208 0.179313,0.295574 -0.0035,0.07898 -0.126034,-0.03846 -0.188599,-0.05983 -0.06829,-0.02324 -0.135825,-0.0492 -0.203749,-0.07386 0.03326,0.04752 0.394276,0.534681 0.43854,0.677845 0.0082,0.02826 -0.04278,0.03829 -0.04995,0.06729 -0.0094,0.03753 0.0035,0.07823 0.0047,0.117351 0.0059,0.238841 -0.0275,0.0712 0.151258,0.395109 -0.07593,0.149432 0.488915,0.612154 0.309449,0.55943 -0.237987,-0.06995 -0.370533,-0.521632 -0.614021,-0.490751 -0.105548,0.01346 0.789209,0.844009 0.74411,0.934806 -0.07863,0.1583 -0.266666,-0.176979 -0.399999,-0.265477 -0.0322,0.251491 0.414997,0.366172 0.399506,0.631161 -0.0047,0.07146 -0.191596,-0.11011 -0.173002,-0.04209 0.04302,0.157093 0.178161,0.250151 0.264774,0.37776 0.265173,0.390732 0.189468,0.243558 0.32728,0.582349 -0.06782,-0.02381 -0.137436,-0.101873 -0.203503,-0.07157 -0.03973,0.0189 0.0047,0.109095 0.02891,0.151727 0.09379,0.164306 0.328126,0.257797 0.319135,0.457649 -0.0071,0.145755 -0.355089,-0.310566 -0.332193,-0.167303 0.07416,0.46405 0.826033,0.765176 0.05007,0.378966 0.194864,0.329837 0.22473,0.286089 0.276469,0.589019 0.0082,0.05168 -0.0082,0.112344 0.01505,0.157226 0.06194,0.122219 0.166549,0.206068 0.230265,0.326862 0.01587,0.03009 -0.0094,0.07292 -0.0012,0.107272 0.01516,0.06293 0.04654,0.118355 0.06982,0.17754 0.551516,0.753513 0.234426,0.224218 -0.01775,0.202531 -0.04325,-0.0037 0.07158,0.10975 0.04302,0.149716 -0.03044,0.04269 -0.119546,-0.06696 -0.138728,-0.01549 -0.07487,0.2011 0.423483,0.371482 -0.184109,0.06305 0.166819,0.315318 0.444216,0.525583 0.613892,0.837645 0.01328,0.02427 -0.03138,0.04418 -0.04702,0.06633 0,0 -1.257356,-1.238809 -1.257356,-1.238809 v 0 c -0.0771,-0.112985 -0.248424,-0.193559 -0.231158,-0.338916 0.0389,-0.327737 0.615831,0.746274 0.09003,-0.142161 -0.09803,-0.135447 -0.241431,-0.237553 -0.294017,-0.406352 -0.02315,-0.07426 0.127551,0.03589 0.187929,0.06582 0.101669,0.05041 0.191831,0.214284 0.296556,0.174267 0.07511,-0.02898 -0.08839,-0.159069 -0.135942,-0.235636 -0.06077,-0.09786 -0.132899,-0.18538 -0.188787,-0.287458 -0.02715,-0.04968 -0.03902,-0.10941 -0.05853,-0.164121 -0.02116,-0.26881 -0.176046,-0.328107 -0.222602,-0.570597 -0.0082,-0.04217 0.01199,-0.08557 0.01375,-0.128847 0.01469,-0.346953 -0.05501,-0.232572 -0.34866,-0.660211 0.0744,0.01749 0.209579,0.143573 0.223401,0.05277 0.0201,-0.13224 -0.108368,-0.236445 -0.179901,-0.338941 -0.168876,-0.241864 -0.403326,-0.419102 -0.538739,-0.690393 -0.04443,-0.08894 0.16374,0.06083 0.243382,0.0987 0.09227,0.04383 0.198589,0.227581 0.271944,0.146401 0.0677,-0.07501 -0.102962,-0.184299 -0.154455,-0.276434 -0.0011,-0.04335 -0.02786,-0.09837 -0.0035,-0.129878 0.02609,-0.03387 0.12942,0.02921 0.114011,-0.01332 -0.05148,-0.14209 -0.193512,-0.214548 -0.247485,-0.355255 -0.01493,-0.03887 0.127315,0.0158 0.104725,-0.01697 -0.432686,-0.628751 -0.961139,-0.927185 -0.171509,-0.398993 -0.155183,-0.201705 -0.342971,-0.408 -0.45624,-0.657397 -0.06171,-0.135834 -0.03844,-0.215987 -0.08463,-0.35852 -0.02574,-0.07933 -0.102491,-0.142074 -0.09673,-0.227047 0.0035,-0.04593 0.07534,-0.0074 0.11307,-0.01122 0.144758,-0.114691 0.01763,0.02478 0.02786,-0.218467 0.0012,-0.0293 0.05959,-0.03442 0.05136,-0.06212 -0.04619,-0.155442 -0.269534,-0.31452 -0.122672,-0.482819 -0.02139,-0.04905 -0.143195,-0.289563 -0.132628,-0.38416 0.0035,-0.03123 0.06841,-0.02973 0.06041,-0.05901 -0.08604,-0.31852 -0.236494,-0.194979 -0.09133,-0.479163 -0.05798,-0.102905 -0.133063,-0.194174 -0.173916,-0.308586 -0.01231,-0.03437 0.02516,-0.07061 0.02514,-0.108101 -5.2e-5,-0.0566 -0.01889,-0.110778 -0.02526,-0.166827 -0.0061,-0.05387 0.0082,-0.114457 -0.01249,-0.162588 -0.06194,-0.143575 -0.427109,-0.694187 -0.49199,-0.794428 0.02425,-0.02999 0.04048,-0.07501 0.07277,-0.09001 0.04759,-0.02146 0.163834,0.04643 0.15194,-0.01374 -0.03021,-0.152776 -0.312635,-0.259087 -0.229693,-0.379457 0.08334,-0.120873 0.371513,0.358752 0.351433,0.202775 -0.0518,-0.402346 -0.85767,-0.79202 -0.03805,-0.326504 -1.375993,-1.854733 -0.04371,0.08599 -0.04183,-0.348344 0.0011,-0.264446 -0.625031,-0.654402 -0.582131,-0.904628 0.01747,-0.101745 0.209094,0.174621 0.247287,0.08159 0.04323,-0.105267 -0.106535,-0.196475 -0.159802,-0.294694 -0.07649,-0.11791 -0.256099,-0.206872 -0.229468,-0.353565 0.02098,-0.115638 0.172556,0.119414 0.268464,0.138754 0.02487,0.0051 0.05251,-0.04797 0.04248,-0.07613 -0.07371,-0.206714 -0.37256,-0.526769 -0.448017,-0.691486 -0.01355,-0.02952 0.03901,-0.04815 0.05851,-0.07215 0.05546,0.01174 0.11468,0.0081 0.166391,0.03506 0.13025,0.0682 0.440888,0.399397 0.37355,0.247477 -0.126404,-0.285203 -0.381827,-0.451669 -0.567146,-0.684263 -0.127462,-0.159969 -0.298468,-0.288389 -0.370927,-0.493108 -0.03277,-0.09261 0.180106,0.18131 0.233184,0.103958 0.05223,-0.07617 -0.08887,-0.166323 -0.13332,-0.249491 0.03437,-0.0068 0.06824,-0.02344 0.10282,-0.02171 0.05755,0.0039 0.183943,0.1085 0.169753,0.04048 -0.03143,-0.15005 -0.165389,-0.236016 -0.23722,-0.363795 -0.03754,-0.06674 -0.05482,-0.147886 -0.08933,-0.217029 -0.185827,-0.37218 -0.290035,-0.35554 0.168231,-0.07935 0.03179,-0.01075 0.07664,4.77e-4 0.0953,-0.03259 0.101011,-0.179698 -0.340042,-0.686084 -0.349113,-0.707296 -0.01335,-0.03137 0.05168,-0.03228 0.07753,-0.04844 -0.09047,-0.13164 -0.180943,-0.263282 -0.271416,-0.394936 0.100528,0.05716 0.23634,0.280727 0.301585,0.171438 0.06655,-0.111536 -0.144365,-0.212627 -0.209908,-0.324983 -0.534962,-0.917043 0.918668,0.446412 -0.338161,-0.841581 0.778408,0.42662 -0.279632,-0.18486 -0.181156,-0.550735 0.116679,-0.4335 0.928941,1.716887 0.577662,0.326439 -0.08028,-0.317895 -0.389834,-0.465849 -0.58475,-0.698764 0.07184,0.02857 0.187434,0.171152 0.215494,0.0857 0.03409,-0.103767 -0.107334,-0.182028 -0.151737,-0.279883 -0.0273,-0.06016 -0.03848,-0.129577 -0.06235,-0.191938 -0.110343,-0.288828 -0.238027,-0.454224 0.161304,-0.228692 0.09195,-0.498512 -0.426831,-0.404224 -0.407564,-0.838228 0.0062,-0.140171 0.329363,0.300656 0.319581,0.160778 -0.04563,-0.652543 -0.622509,-0.47808 -0.191389,-0.566229 0.01105,-0.0096 0.183624,-0.160566 0.179662,-0.191584 -0.01484,-0.116689 -0.105289,-0.200883 -0.137172,-0.312411 -0.01339,-0.04647 0.01117,-0.09879 0.0056,-0.147687 -0.02228,-0.19864 -0.102527,-0.296167 -0.193091,-0.473617 0.257594,-0.147804 0.02762,0.02952 -0.20669,-0.508397 -0.01422,-0.03256 0.05002,-0.05856 0.07985,-0.05244 0.08706,0.01783 0.281558,0.217384 0.246079,0.118955 -0.249956,-0.693402 -0.549244,-0.329293 -0.323212,-0.570724 0.0034,-0.03848 -0.01365,-0.09025 0.01034,-0.11573 0.02745,-0.02912 0.116714,0.03275 0.108815,-0.01043 -0.02057,-0.112296 -0.10791,-0.188792 -0.162441,-0.282688 -0.05845,-0.100681 -0.217693,-0.188339 -0.17648,-0.300931 0.095,-0.259493 0.605417,0.711568 0.0553,-0.204279 -0.136329,-0.327938 -0.04721,-0.144367 -0.290441,-0.533102 -0.01902,-0.04108 -0.04955,-0.153411 -0.01233,-0.14063 0.15122,0.05217 0.256158,0.256979 0.412322,0.278577 0.208288,0.02881 -0.767161,-0.881973 -0.372852,-0.616845 0.0141,-0.03083 0.01909,-0.07144 0.0423,-0.09266 0.02862,-0.02609 0.10429,0.0044 0.102303,-0.03931 -0.0059,-0.130593 -0.345685,-0.608862 -0.355379,-0.630611 -0.01687,-0.03793 0.03009,-0.08838 0.01601,-0.12809 -0.04158,-0.11715 -0.116325,-0.212353 -0.174486,-0.318523 0.504796,0.09157 -0.225495,0.0036 -0.248187,-0.506801 -0.0085,-0.191398 0.413952,0.472664 0.411939,0.280986 -0.0026,-0.245835 -0.286967,-0.3471 -0.414629,-0.537538 -0.04328,-0.06458 -0.1621,-0.235341 -0.09455,-0.222013 0.156272,0.03081 0.27557,0.18995 0.413351,0.28491 0.03643,-0.144981 0.0224,-0.06838 0.03974,-0.230365 0.0085,-0.03834 0.05603,-0.07595 0.03854,-0.109504 -0.09898,-0.189781 -0.251949,-0.329922 -0.361887,-0.510524 -0.0535,-0.08791 -0.155277,-0.403064 -0.190572,-0.506647 -0.0038,-0.06163 -0.04057,-0.134674 -0.01105,-0.184945 0.199703,-0.3409 0.750167,1.078936 -0.258377,-0.587111 -0.04182,-0.06905 -0.14819,-0.257178 -0.07938,-0.238668 0.192541,0.05172 0.342617,0.47343 0.514468,0.355657 0.15008,-0.102778 -0.223926,-0.318705 -0.335887,-0.478059 0.357749,-0.06815 0.02482,0.03991 -0.280933,-0.575021 -0.166336,-0.334581 0.391652,0.310576 0.25762,-0.01561 -0.19163,-0.466313 -0.554671,-0.533436 -0.08106,-0.371423 -0.12277,-0.166185 -0.245541,-0.33237 -0.368308,-0.498542 0.05616,0.0136 0.191176,0.104618 0.168498,0.0406 -0.06041,-0.170588 -0.201559,-0.278933 -0.302338,-0.418415 0.04032,-0.0044 0.123284,0.03653 0.12098,-0.01259 -0.02132,-0.455244 -0.229979,-0.127272 -0.07991,-0.329542 0.0012,-0.379269 0.01748,0.233098 -0.118439,-0.385013 -0.0073,-0.03292 0.05098,-0.05398 0.04425,-0.08707 -0.04622,-0.227205 -0.279645,-0.342643 -0.106041,-0.550407 0.03259,-0.02102 0.07863,-0.02419 0.09803,-0.06193 0.113046,-0.22366 -0.381988,-0.625677 -0.463417,-0.749033 -0.423164,-0.641023 0.892205,0.296283 -0.314738,-0.743774 0.120511,0.06992 0.245589,0.290041 0.361496,0.209497 0.0956,-0.06649 -0.131538,-0.215226 -0.19203,-0.327245 -0.341981,-0.633314 -0.04485,-0.01739 0.0809,-0.200881 0.06437,-0.09393 -0.189995,-0.255451 -0.03972,-0.363911 -0.129459,-0.184532 -0.318134,-0.326443 -0.388383,-0.553594 -0.02902,-0.09374 0.15743,0.06583 0.239508,0.07221 0.04022,0.0032 0.133467,-8.29e-4 0.115233,-0.04458 -0.07815,-0.187599 -0.225677,-0.318601 -0.334552,-0.481902 -0.07713,-0.115672 -0.306116,-0.245125 -0.22329,-0.354801 0.08513,-0.112728 0.226016,0.134358 0.339024,0.201543 -0.07314,-0.1067 -0.142207,-0.217758 -0.219438,-0.320098 -0.09779,-0.129576 -0.214345,-0.2381 -0.305133,-0.375016 -0.01696,-0.02568 -0.03337,-0.08455 -0.0088,-0.0984 0.04095,-0.023 0.150229,0.07927 0.133288,0.02833 -0.07741,-0.232656 -0.329161,-0.334025 -0.380077,-0.594004 0.133992,0.07781 0.349569,0.402573 0.401973,0.233408 0.0604,-0.194947 -0.248106,-0.297965 -0.324151,-0.484609 -0.01753,-0.04314 0.104078,-0.05597 0.08635,-0.09901 -0.08665,-0.210486 -0.267161,-0.348359 -0.3565,-0.557168 -0.02501,-0.05837 0.02379,-0.128432 0.03567,-0.192655 -0.0604,-0.1404 -0.120799,-0.280797 -0.181203,-0.421192 0.07998,-0.0087 0.247004,0.07151 0.239977,-0.02593 -0.01535,-0.212746 -0.189657,-0.359327 -0.280904,-0.541695 -0.0877,-0.175299 -0.207245,-0.334611 -0.255913,-0.531155 -0.01671,-0.06715 0.07604,-0.117824 0.07786,-0.187959 0.0049,-0.189577 -0.113658,-0.362338 -0.107405,-0.553798 0,0 1.474421,1.454289 1.474421,1.454289 z"
         id="path3767-3"
         style="fill:#000000;stroke-width:0.34321368;stroke-miterlimit:4;stroke-dasharray:1.02964103, 0.34321366;stroke-dashoffset:0" />
      <text
         xml:space="preserve"
         style="font-style:normal;font-weight:normal;font-size:5.74853706px;line-height:1.25;font-family:sans-serif;letter-spacing:0px;word-spacing:0px;fill:#000000;fill-opacity:1;stroke:none;stroke-width:0.14371341"
         x="57.135643"
         y="28.997126"
         id="text3856"><tspan
           sodipodi:role="line"
           id="tspan3854"
           x="57.135643"
           y="28.997126"
           style="stroke-width:0.14371341">Efeito Gibbs</tspan></text>
      <path
         style="fill:none;stroke:#000000;stroke-width:0.265;stroke-linecap:butt;stroke-linejoin:miter;stroke-opacity:1;stroke-miterlimit:4;stroke-dasharray:none;marker-start:url(#Arrow1Lstart)"
         d="M 43.558803,40.690424 C 43.030393,27.325047 55.992966,26.924143 55.992966,26.924143"
         id="path3858"
         inkscape:connector-curvature="0" />
      <path
         style="fill:none;stroke:#000000;stroke-width:0.26458332;stroke-linecap:butt;stroke-linejoin:miter;stroke-opacity:1;stroke-miterlimit:4;stroke-dasharray:0.52916663,1.05833327;stroke-dashoffset:0"
         d="m 85.392613,36.011305 c 0,47.039436 0,47.173072 0,47.173072"
         id="path4973"
         inkscape:connector-curvature="0" />
      <path
         style="fill:none;stroke:#000000;stroke-width:0.26458332;stroke-linecap:butt;stroke-linejoin:miter;stroke-opacity:1;stroke-miterlimit:4;stroke-dasharray:0.52916663,1.05833327;stroke-dashoffset:0"
         d="m 95.393734,35.877672 c 0,47.573974 0,47.573974 0,47.573974"
         id="path4975"
         inkscape:connector-curvature="0" />
      <text
         xml:space="preserve"
         style="font-style:normal;font-weight:normal;font-size:5.74853706px;line-height:1.25;font-family:sans-serif;letter-spacing:0px;word-spacing:0px;fill:#000000;fill-opacity:1;stroke:none;stroke-width:0.14371343"
         x="50.109726"
         y="92.543716"
         id="text3856-6"><tspan
           sodipodi:role="line"
           id="tspan3854-7"
           x="50.109726"
           y="92.543716"
           style="stroke-width:0.14371343">Banda de</tspan><tspan
           sodipodi:role="line"
           x="50.109726"
           y="99.729385"
           style="stroke-width:0.14371343"
           id="tspan5754">transio</tspan></text>
      <path
         style="fill:none;stroke:#000000;stroke-width:0.26499999;stroke-linecap:butt;stroke-linejoin:miter;stroke-miterlimit:4;stroke-dasharray:none;stroke-opacity:1;marker-start:url(#Arrow1Lstart-5)"
         d="m 90.608107,85.706658 c 0.220855,13.373995 -12.74751,13.476643 -12.74751,13.476643"
         id="path3858-5"
         inkscape:connector-curvature="0" />
      <path
         style="fill:none;stroke:#000000;stroke-width:0.26458332px;stroke-linecap:butt;stroke-linejoin:miter;stroke-opacity:1"
         d="m 85.392611,83.184377 c 0,3.471871 5.179933,1.893822 5.179933,1.893822 v 1.08668 -1.039434 c 0,0 4.82119,0.885733 4.82119,-1.6738 v -2.559534"
         id="path5912"
         inkscape:connector-curvature="0"
         sodipodi:nodetypes="ccccsc" />
    </g>
  </g>
</svg>
